<?xml version="1.0" encoding="utf-8"?>
<!-- Generator: Adobe Illustrator 17.0.0, SVG Export Plug-In . SVG Version: 6.00 Build 0)  -->
<!DOCTYPE svg PUBLIC "-//W3C//DTD SVG 1.1//EN" "http://www.w3.org/Graphics/SVG/1.1/DTD/svg11.dtd">
<svg version="1.1" id="Layer_1" xmlns="http://www.w3.org/2000/svg" xmlns:xlink="http://www.w3.org/1999/xlink" x="0px" y="0px"
	 width="18px" height="18px" viewBox="0 0 18 18" enable-background="new 0 0 18 18" xml:space="preserve">
<g>
	
		<linearGradient id="SVGID_1_" gradientUnits="userSpaceOnUse" x1="9" y1="20.0005" x2="9" y2="7.9057" gradientTransform="matrix(1 0 0 -1 0 20)">
		<stop  offset="0" style="stop-color:#DD4726"/>
		<stop  offset="1" style="stop-color:#FAA324"/>
	</linearGradient>
	<path fill="url(#SVGID_1_)" d="M18,9c0,4.971-4.03,9-9,9s-9-4.03-9-9c0-4.971,4.03-9,9-9S18,4.029,18,9"/>
	<path fill="#010101" d="M5.851,15.245c0,0.594,1.41,0.499,3.15,0.499c1.739,0,3.15,0.094,3.15-0.499
		c0-0.715-1.411-1.182-3.15-1.182C7.26,14.062,5.851,14.529,5.851,15.245z"/>
	
		<linearGradient id="SVGID_2_" gradientUnits="userSpaceOnUse" x1="9.0006" y1="5.7092" x2="9.0006" y2="4.25" gradientTransform="matrix(1 0 0 -1 0 20)">
		<stop  offset="0" style="stop-color:#3A150E"/>
		<stop  offset="1" style="stop-color:#66200E"/>
	</linearGradient>
	<path fill="url(#SVGID_2_)" d="M5.851,15.245c0,0.594,1.41,0.499,3.15,0.499c1.739,0,3.15,0.094,3.15-0.499
		c0-0.715-1.411-1.182-3.15-1.182C7.26,14.062,5.851,14.529,5.851,15.245z"/>
	
		<linearGradient id="SVGID_3_" gradientUnits="userSpaceOnUse" x1="9.0005" y1="10.5489" x2="9.0005" y2="7.625" gradientTransform="matrix(1 0 0 -1 0 20)">
		<stop  offset="0" style="stop-color:#191A33"/>
		<stop  offset="0.872" style="stop-color:#3C436B"/>
	</linearGradient>
	<path fill="url(#SVGID_3_)" d="M4.051,11.06c0-0.889,0.605-1.609,1.35-1.609c0.746,0,1.35,0.72,1.35,1.609
		c0,0.371-0.105,0.712-0.283,0.983c-0.084,0.125-0.211,0.213-0.358,0.247c-0.169,0.04-0.42,0.084-0.709,0.084
		c-0.289,0-0.541-0.044-0.709-0.084c-0.146-0.034-0.274-0.122-0.358-0.247C4.146,11.75,4.047,11.408,4.051,11.06z M11.251,11.06
		c0-0.889,0.604-1.609,1.35-1.609c0.745,0,1.35,0.72,1.35,1.609c0,0.371-0.106,0.712-0.283,0.983
		c-0.083,0.125-0.211,0.214-0.358,0.247c-0.233,0.056-0.47,0.084-0.709,0.084c-0.289,0-0.54-0.044-0.709-0.084
		c-0.147-0.034-0.276-0.122-0.36-0.247C11.345,11.75,11.247,11.408,11.251,11.06z"/>
	<path fill="#010101" d="M4.051,11.06c0-0.889,0.605-1.609,1.35-1.609c0.746,0,1.35,0.72,1.35,1.609
		c0,0.371-0.105,0.712-0.283,0.983c-0.084,0.125-0.211,0.213-0.358,0.247c-0.169,0.04-0.42,0.084-0.709,0.084
		c-0.289,0-0.541-0.044-0.709-0.084c-0.146-0.034-0.274-0.122-0.358-0.247C4.146,11.75,4.047,11.408,4.051,11.06z M11.251,11.06
		c0-0.889,0.604-1.609,1.35-1.609c0.745,0,1.35,0.72,1.35,1.609c0,0.371-0.106,0.712-0.283,0.983
		c-0.083,0.125-0.211,0.214-0.358,0.247c-0.233,0.056-0.47,0.084-0.709,0.084c-0.289,0-0.54-0.044-0.709-0.084
		c-0.147-0.034-0.276-0.122-0.36-0.247C11.345,11.75,11.247,11.408,11.251,11.06z"/>
	<path fill="#505068" d="M5.59,10.5c0.005,0.026,0.008,0.052,0.008,0.079c0,0.227-0.198,0.413-0.443,0.413
		c-0.244,0-0.442-0.186-0.442-0.412c0-0.093,0.034-0.18,0.09-0.249C5.054,10.39,5.32,10.448,5.59,10.5z M12.257,10.991
		c-0.237,0-0.431-0.172-0.442-0.391c0.29-0.043,0.579-0.096,0.861-0.153c0.016,0.043,0.024,0.088,0.023,0.134
		c0,0.225-0.197,0.411-0.442,0.411L12.257,10.991z"/>
	<path fill="#010101" d="M10.126,8.55c0-0.502,0.183-0.675,0.501-0.675c0.315,0,0.466,0.31,0.569,1.199
		c1.269,0,3.418-0.601,3.625-0.601c0.2,0,0.312,0.096,0.357,0.3c0.039,0.178-0.026,0.346-0.249,0.45
		c-0.699,0.323-2.748,1.052-4.482,1.052c-0.189,0-0.321-0.097-0.321-0.339V8.55z M6.806,9.074C6.908,8.186,7.06,7.875,7.375,7.875
		c0.317,0,0.501,0.173,0.501,0.675v1.387c0,0.242-0.132,0.339-0.321,0.339c-1.734,0-3.783-0.729-4.482-1.052
		C2.85,9.12,2.785,8.952,2.824,8.774c0.045-0.205,0.157-0.3,0.357-0.3C3.388,8.474,5.537,9.074,6.806,9.074z"/>
	
		<linearGradient id="SVGID_4_" gradientUnits="userSpaceOnUse" x1="9.0006" y1="9.5004" x2="9.0006" y2="12.125" gradientTransform="matrix(1 0 0 -1 0 20)">
		<stop  offset="0" style="stop-color:#9A3320"/>
		<stop  offset="1" style="stop-color:#D24C27"/>
	</linearGradient>
	<path fill="url(#SVGID_4_)" d="M10.126,8.55c0-0.502,0.183-0.675,0.501-0.675c0.315,0,0.466,0.31,0.569,1.199
		c1.269,0,3.418-0.601,3.625-0.601c0.2,0,0.312,0.096,0.357,0.3c0.039,0.178-0.026,0.346-0.249,0.45
		c-0.699,0.323-2.748,1.052-4.482,1.052c-0.189,0-0.321-0.097-0.321-0.339V8.55z M6.806,9.074C6.908,8.186,7.06,7.875,7.375,7.875
		c0.317,0,0.501,0.173,0.501,0.675v1.387c0,0.242-0.132,0.339-0.321,0.339c-1.734,0-3.783-0.729-4.482-1.052
		C2.85,9.12,2.785,8.952,2.824,8.774c0.045-0.205,0.157-0.3,0.357-0.3C3.388,8.474,5.537,9.074,6.806,9.074z"/>
</g>
</svg>
