<?xml version="1.0" encoding="utf-8"?>
<!-- Generator: Adobe Illustrator 17.0.0, SVG Export Plug-In . SVG Version: 6.00 Build 0)  -->
<!DOCTYPE svg PUBLIC "-//W3C//DTD SVG 1.1//EN" "http://www.w3.org/Graphics/SVG/1.1/DTD/svg11.dtd">
<svg version="1.1" id="Layer_1" xmlns="http://www.w3.org/2000/svg" xmlns:xlink="http://www.w3.org/1999/xlink" x="0px" y="0px"
	 width="130px" height="43px" viewBox="0 0 130 43" enable-background="new 0 0 130 43" xml:space="preserve">
<g>
	<path d="M126.148,43.292c-40.765,0-81.531,0-122.296,0c-1.024-0.325-2.049-0.723-2.675-1.727C0.688,40.782,0.385,39.855,0,38.992
		c0-11.467,0-22.933,0-34.4c0.287-1.147,0.649-2.288,1.549-2.988c0.7-0.545,1.531-0.882,2.303-1.312c40.765,0,81.531,0,122.296,0
		c0.706,0.378,1.461,0.675,2.108,1.154c0.987,0.732,1.428,1.912,1.744,3.146c0,11.467,0,22.933,0,34.4
		c-0.387,1.595-1.111,2.918-2.473,3.688C127.088,42.929,126.609,43.091,126.148,43.292z M31.63,16.382
		c-1.587-2.492-4.324-3.41-7.034-2.144c-1.5,0.701-2.863,0.858-4.292-0.023c-0.052-0.032-0.111-0.051-0.167-0.074
		c-0.985-0.401-1.979-0.492-3.007-0.189c-2.594,0.765-4.484,3.338-4.729,6.575c-0.371,4.907,1.168,9.077,4.046,12.7
		c1.049,1.321,2.344,1.616,3.754,0.869c1.711-0.906,3.359-0.909,5.09-0.037c1.552,0.782,2.771,0.453,3.908-0.953
		c1.285-1.588,2.304-3.377,2.96-5.403c0.052-0.16,0.077-0.33,0.112-0.486C28.282,25.106,27.812,19.29,31.63,16.382z M64.086,23.867
		c0,4.863,0,9.642,0,14.419c0.724,0,1.377,0,2.088,0c0-0.887,0-1.733,0-2.579c0-0.84,0-1.679,0-2.396
		c0.634,0.334,1.22,0.811,1.865,0.953c1.976,0.436,3.666-0.66,4.428-2.755c0.49-1.346,0.555-2.751,0.29-4.156
		c-0.326-1.728-1.119-3.121-2.728-3.579c-1.569-0.447-2.98-0.033-4.027,1.468c-0.013,0.019-0.072-0.003-0.112-0.006
		c-0.045-0.459-0.09-0.916-0.135-1.369C65.152,23.867,64.616,23.867,64.086,23.867z M55.532,33.273
		c0.61,0.348,1.156,0.816,1.767,0.977c1.889,0.498,3.641-0.518,4.445-2.501c0.636-1.571,0.682-3.215,0.278-4.857
		c-0.392-1.592-1.246-2.809-2.738-3.16c-1.501-0.354-2.874,0.012-3.868,1.472c-0.025,0.037-0.088,0.042-0.136,0.063
		c-0.054-0.484-0.105-0.941-0.156-1.394c-0.614,0-1.167,0-1.671,0c0,4.838,0,9.635,0,14.402c0.742,0,1.394,0,2.081,0
		C55.532,36.549,55.532,34.876,55.532,33.273z M44.114,29.973c1.319,0,2.581-0.017,3.842,0.021c0.155,0.005,0.379,0.273,0.441,0.47
		c0.338,1.075,0.627,2.169,0.957,3.247c0.053,0.172,0.224,0.413,0.352,0.422c0.627,0.044,1.258,0.02,1.944,0.02
		c-1.362-4.708-2.693-9.321-4.045-13.927c-0.047-0.16-0.304-0.331-0.472-0.344c-0.559-0.043-1.124,0.015-1.683-0.027
		c-0.405-0.03-0.551,0.17-0.663,0.564c-1.258,4.407-2.53,8.81-3.795,13.214c-0.044,0.155-0.057,0.321-0.087,0.501
		c0.715,0,1.373,0,2.062,0C43.345,32.761,43.721,31.398,44.114,29.973z M77.315,31.602c-0.127,0.472-0.228,0.924-0.371,1.358
		c-0.143,0.432-0.01,0.645,0.354,0.807c1.729,0.767,3.477,0.854,5.218,0.117c1.311-0.555,2.061-1.665,2.205-3.234
		c0.145-1.572-0.294-2.882-1.523-3.754c-0.521-0.37-1.092-0.65-1.644-0.964c-0.517-0.293-1.055-0.544-1.554-0.871
		c-0.638-0.419-0.987-1.059-0.864-1.909c0.128-0.886,0.674-1.333,1.42-1.519c1.106-0.275,2.145,0.007,3.211,0.525
		c0.173-0.616,0.342-1.221,0.525-1.875c-1.667-0.729-3.29-0.931-4.925-0.247c-1.298,0.543-2.123,1.591-2.29,3.166
		c-0.16,1.506,0.421,2.667,1.513,3.491c0.542,0.409,1.158,0.699,1.748,1.026c0.429,0.238,0.89,0.413,1.303,0.681
		c0.88,0.572,1.228,1.424,1.042,2.418c-0.16,0.855-0.832,1.455-1.8,1.608C79.621,32.627,78.458,32.281,77.315,31.602z
		 M97.356,23.615c-1.364-0.002-2.56,0.425-3.473,1.635c-0.997,1.322-1.264,2.861-1.109,4.522c0.32,3.444,2.884,5.352,5.857,4.374
		c1.867-0.614,3.083-2.576,3.156-5.093C101.882,25.83,100.083,23.622,97.356,23.615z M116.838,32.338
		c-1.112,0.072-2.166,0.25-3.206,0.181c-1.38-0.092-2.289-1.419-2.134-2.961c2.007,0,4.022,0,6.1,0c0-0.756,0.088-1.458-0.017-2.122
		c-0.274-1.727-0.986-3.174-2.623-3.642c-1.689-0.483-3.234-0.11-4.399,1.463c-1.16,1.566-1.359,3.397-1.03,5.32
		c0.346,2.025,1.754,3.514,3.579,3.68c0.947,0.086,1.915-0.048,2.867-0.148c0.379-0.04,0.743-0.257,1.117-0.394
		C116.988,33.148,116.9,32.672,116.838,32.338z M91.372,32.43c-0.28,0.018-0.497,0.043-0.714,0.043
		c-0.768,0.001-1.293-0.396-1.319-1.229c-0.06-1.869-0.019-3.742-0.019-5.688c0.75,0,1.48,0,2.231,0c0-0.6,0-1.123,0-1.728
		c-0.762,0-1.492,0-2.291,0c0-0.87,0-1.661,0-2.548c-0.728,0.242-1.365,0.454-2.026,0.674c0,0.645,0,1.22,0,1.872
		c-0.451,0-0.861,0-1.299,0c0,0.605,0,1.13,0,1.727c0.437,0,0.847,0,1.318,0c0,0.311-0.001,0.55,0,0.79
		c0.005,1.677-0.041,3.357,0.027,5.031c0.102,2.527,2.159,3.809,4.204,2.639C91.449,33.52,91.413,33.01,91.372,32.43z
		 M105.644,34.009c0-0.343-0.001-0.608,0-0.874c0.008-1.657-0.034-3.316,0.038-4.969c0.078-1.82,1.198-2.752,2.588-2.414
		c0.032,0.008,0.072-0.027,0.128-0.049c0-0.672,0-1.351,0-2.041c-1.57-0.417-2.321,0.692-3.035,2.034
		c-0.046-0.73-0.084-1.321-0.122-1.922c-0.607,0-1.14,0-1.669,0c0,3.43,0,6.82,0,10.236
		C104.248,34.009,104.904,34.009,105.644,34.009z M42.056,11.152c0,0.537,0,1.074,0,1.611c0,2.226,0,2.226,2.019,2.014
		c1.712-0.18,2.707-1.03,3.05-2.605c0.506-2.323-0.46-4.135-2.432-4.439c-0.727-0.112-1.479-0.03-2.219-0.036
		c-0.347-0.003-0.426,0.22-0.421,0.567C42.065,9.227,42.057,10.19,42.056,11.152z M27.156,7.035
		c-2.604-0.06-5.348,3.508-4.814,6.224C24.881,13.59,27.477,10.267,27.156,7.035z M53.894,9.731c0.387,1.524,0.77,3.003,1.134,4.487
		c0.086,0.352,0.218,0.519,0.575,0.502c0.336-0.016,0.543-0.07,0.647-0.496c0.25-1.026,0.557-2.035,0.852-3.089
		c0.273,1.037,0.541,2.019,0.788,3.008c0.087,0.348,0.166,0.597,0.582,0.582c0.387-0.014,0.57-0.134,0.662-0.566
		c0.129-0.607,0.327-1.196,0.495-1.794c0.244-0.868,0.487-1.737,0.732-2.613c-0.935-0.184-0.942-0.181-1.141,0.686
		c-0.222,0.968-0.439,1.937-0.683,3.012c-0.284-1.115-0.546-2.139-0.804-3.165c-0.088-0.352-0.147-0.653-0.608-0.64
		c-0.431,0.013-0.469,0.301-0.552,0.621c-0.264,1.009-0.532,2.017-0.798,3.026c-0.3-0.919-0.488-1.826-0.68-2.732
		C54.891,9.6,54.889,9.6,53.894,9.731z M84.916,14.685c0-2.458,0-4.878,0-7.291c-0.352,0-0.621,0-0.936,0c0,0.907,0,1.76,0,2.644
		c-1.161-0.818-2.342-0.536-2.903,0.688c-0.435,0.95-0.451,1.95-0.048,2.915c0.552,1.323,1.937,1.6,2.899,0.615
		c0.04-0.041,0.094-0.067,0.156-0.11c0.041,0.202,0.077,0.38,0.109,0.539C84.477,14.685,84.71,14.685,84.916,14.685z
		 M108.227,14.687c0-0.876-0.021-1.722,0.01-2.564c0.014-0.367,0.088-0.753,0.22-1.089c0.183-0.466,0.602-0.681,0.997-0.499
		c0.278,0.128,0.517,0.501,0.654,0.828c0.109,0.26,0.043,0.615,0.045,0.927c0.004,0.795,0.001,1.589,0.001,2.384
		c0.407,0,0.715,0,1.12,0c-0.056-1.316-0.02-2.596-0.191-3.841c-0.149-1.09-1.15-1.574-2.04-1.126
		c-0.274,0.138-0.506,0.382-0.824,0.629c0-1.023,0-1.973,0-2.943c-0.342,0-0.629,0-0.914,0c0,2.458,0,4.863,0,7.294
		C107.616,14.687,107.888,14.687,108.227,14.687z M74.393,12.184c0.007-1.578-0.84-2.615-2.148-2.628
		c-1.365-0.014-2.289,1.044-2.302,2.635c-0.012,1.54,0.875,2.62,2.16,2.631C73.473,14.835,74.385,13.784,74.393,12.184z
		 M52.862,12.214c0.018-1.602-0.812-2.64-2.127-2.658c-1.368-0.019-2.3,1.042-2.317,2.639c-0.016,1.511,0.863,2.601,2.12,2.627
		C51.932,14.852,52.843,13.829,52.862,12.214z M89.18,12.215c-0.004,1.58,0.843,2.596,2.172,2.608
		c1.363,0.012,2.255-1.049,2.251-2.679c-0.004-1.538-0.868-2.589-2.128-2.588C90.117,9.556,89.184,10.637,89.18,12.215z
		 M116.284,13.815c-1.993,0.234-2.51-0.018-2.62-1.341c0.996,0,1.987,0,2.962,0c0.287-1.539-0.41-2.782-1.574-2.909
		c-1.229-0.134-2.203,0.795-2.369,2.258c-0.176,1.555,0.506,2.751,1.74,2.944c0.466,0.073,0.954-0.008,1.43-0.052
		C116.389,14.665,116.535,14.351,116.284,13.815z M96.094,14.68c0-0.964-0.032-1.858,0.015-2.746c0.02-0.377,0.112-0.86,0.339-1.083
		c0.24-0.236,0.713-0.36,1.02-0.267c0.229,0.069,0.486,0.551,0.505,0.866c0.062,1.062,0.024,2.132,0.024,3.231
		c0.407,0,0.716,0,1.082,0c0-0.996-0.011-1.953,0.003-2.909c0.013-0.893-0.21-1.66-0.972-2.061c-0.724-0.381-1.362-0.111-1.909,0.49
		c-0.024,0.027-0.072,0.027-0.139,0.05c-0.036-0.187-0.07-0.369-0.101-0.533c-0.311,0-0.578,0-0.812,0c0,1.676,0,3.299,0,4.962
		C95.473,14.68,95.743,14.68,96.094,14.68z M62.727,14.686c0-0.954-0.032-1.867,0.015-2.774c0.02-0.376,0.121-0.845,0.346-1.08
		c0.217-0.227,0.709-0.377,0.956-0.252c0.273,0.138,0.547,0.612,0.572,0.962c0.075,1.036,0.027,2.083,0.027,3.14
		c0.384,0,0.677,0,0.962,0c0-1.262,0.084-2.493-0.024-3.703c-0.101-1.139-1.153-1.728-2.075-1.281
		c-0.268,0.13-0.499,0.354-0.768,0.549c-0.063-0.185-0.128-0.379-0.186-0.55c-0.282,0-0.517,0-0.782,0c0,1.672,0,3.313,0,4.989
		C62.076,14.686,62.349,14.686,62.727,14.686z M76.157,10.637c1.405-0.562,2.074-0.304,2.035,0.771
		c-0.294,0.04-0.596,0.055-0.885,0.128c-0.31,0.078-0.627,0.168-0.908,0.327c-0.66,0.373-0.956,1.174-0.755,1.922
		c0.19,0.706,0.746,1.125,1.501,1.016c0.397-0.057,0.773-0.284,1.166-0.437c0.17,0.585,0.571,0.322,0.895,0.276
		c0-1.099,0.016-2.151-0.005-3.201c-0.021-1.063-0.497-1.751-1.333-1.843c-0.467-0.051-0.955,0.032-1.424,0.118
		C75.939,9.806,75.825,10.132,76.157,10.637z M105.791,14.627c0-0.226,0-0.462,0-0.697c-0.042,0.046-0.084,0.093-0.125,0.139
		c-0.282-0.228-0.781-0.427-0.808-0.689c-0.099-0.936-0.039-1.892-0.039-2.904c0.352,0,0.663,0,1.005,0
		C105.81,10.175,105.8,9.94,105.79,9.7c-0.356-0.019-0.652-0.034-0.986-0.052c-0.029-0.399-0.055-0.769-0.081-1.134
		c-0.751-0.068-1.026,0.357-0.959,1.098c-0.236,0.053-0.422,0.096-0.591,0.134c0,0.264,0,0.481,0,0.713
		c0.214,0.037,0.403,0.07,0.632,0.109c0,0.903-0.031,1.774,0.007,2.642C103.873,14.594,104.564,15.083,105.791,14.627z
		 M68.429,14.685c0-2.437,0-4.843,0-7.297c-0.322,0-0.628,0-0.956,0c0,2.451,0,4.857,0,7.297
		C67.804,14.685,68.097,14.685,68.429,14.685z"/>
	<path fill="#FFFFFF" d="M31.63,16.382c-3.818,2.908-3.349,8.725,0.641,10.835c-0.035,0.155-0.06,0.326-0.112,0.486
		c-0.656,2.026-1.675,3.814-2.96,5.403c-1.138,1.406-2.357,1.734-3.908,0.953c-1.731-0.872-3.379-0.869-5.09,0.037
		c-1.41,0.747-2.705,0.452-3.754-0.869c-2.878-3.623-4.416-7.793-4.046-12.7c0.245-3.237,2.134-5.81,4.729-6.575
		c1.028-0.303,2.022-0.212,3.007,0.189c0.056,0.023,0.115,0.042,0.167,0.074c1.429,0.881,2.791,0.723,4.292,0.023
		C27.306,12.972,30.043,13.89,31.63,16.382z"/>
	<path fill="#FFFFFF" d="M64.086,23.867c0.53,0,1.065,0,1.669,0c0.045,0.453,0.09,0.91,0.135,1.369
		c0.04,0.003,0.099,0.025,0.112,0.006c1.047-1.501,2.458-1.915,4.027-1.468c1.609,0.459,2.402,1.851,2.728,3.579
		c0.265,1.405,0.2,2.81-0.29,4.156c-0.762,2.095-2.452,3.191-4.428,2.755c-0.645-0.142-1.231-0.618-1.865-0.953
		c0,0.717,0,1.556,0,2.396c0,0.846,0,1.692,0,2.579c-0.711,0-1.364,0-2.088,0C64.086,33.509,64.086,28.73,64.086,23.867z
		 M66.036,29.034c0.019,0.006,0.037,0.011,0.056,0.017c0.029,0.468,0.027,0.941,0.093,1.403c0.153,1.083,0.854,1.902,1.726,2.071
		c1.039,0.201,1.957-0.253,2.423-1.296c0.646-1.445,0.667-2.941,0.052-4.402c-0.402-0.956-1.128-1.455-2.087-1.387
		c-0.95,0.067-1.638,0.644-1.948,1.633C66.157,27.692,66.135,28.378,66.036,29.034z"/>
	<path fill="#FFFFFF" d="M55.532,33.273c0,1.603,0,3.276,0,5.002c-0.686,0-1.339,0-2.081,0c0-4.767,0-9.564,0-14.402
		c0.504,0,1.058,0,1.671,0c0.051,0.453,0.102,0.91,0.156,1.394c0.047-0.021,0.11-0.026,0.136-0.063
		c0.994-1.46,2.368-1.826,3.868-1.472c1.493,0.352,2.347,1.568,2.738,3.16c0.404,1.642,0.359,3.286-0.278,4.857
		c-0.803,1.983-2.555,2.998-4.445,2.501C56.688,34.089,56.142,33.621,55.532,33.273z M60.261,29.033
		c-0.127-0.682-0.184-1.29-0.358-1.853c-0.356-1.152-1.224-1.79-2.253-1.746c-0.907,0.039-1.831,0.792-2.001,1.908
		c-0.159,1.041-0.172,2.141-0.067,3.192c0.114,1.143,0.92,1.901,1.833,2.006c1.092,0.126,1.955-0.371,2.374-1.504
		C60.029,30.388,60.116,29.669,60.261,29.033z"/>
	<path fill="#FFFFFF" d="M44.114,29.973c-0.393,1.425-0.769,2.789-1.148,4.162c-0.689,0-1.347,0-2.062,0
		c0.031-0.18,0.043-0.346,0.087-0.501c1.265-4.405,2.537-8.807,3.795-13.214c0.112-0.394,0.258-0.594,0.663-0.564
		c0.559,0.042,1.124-0.016,1.683,0.027c0.168,0.013,0.425,0.184,0.472,0.344c1.352,4.605,2.683,9.219,4.045,13.927
		c-0.686,0-1.317,0.024-1.944-0.02c-0.128-0.009-0.299-0.25-0.352-0.422c-0.33-1.078-0.619-2.172-0.957-3.247
		c-0.062-0.197-0.286-0.465-0.441-0.47C46.695,29.956,45.433,29.973,44.114,29.973z M47.879,28.171
		c-0.582-2.112-1.152-4.181-1.717-6.233c-0.542,2.054-1.087,4.118-1.645,6.233C45.66,28.171,46.746,28.171,47.879,28.171z"/>
	<path fill="#FFFFFF" d="M77.315,31.602c1.143,0.679,2.306,1.025,3.566,0.826c0.969-0.153,1.64-0.753,1.8-1.608
		c0.186-0.994-0.162-1.846-1.042-2.418c-0.413-0.268-0.873-0.443-1.303-0.681c-0.59-0.327-1.205-0.617-1.748-1.026
		c-1.092-0.824-1.673-1.985-1.513-3.491c0.167-1.575,0.992-2.623,2.29-3.166c1.636-0.684,3.259-0.482,4.925,0.247
		c-0.183,0.654-0.352,1.259-0.525,1.875c-1.066-0.518-2.105-0.8-3.211-0.525c-0.746,0.186-1.292,0.633-1.42,1.519
		c-0.122,0.85,0.226,1.489,0.864,1.909c0.498,0.328,1.037,0.578,1.554,0.871c0.552,0.313,1.124,0.594,1.644,0.964
		c1.228,0.872,1.668,2.182,1.523,3.754c-0.145,1.569-0.894,2.678-2.205,3.234c-1.74,0.737-3.489,0.65-5.218-0.117
		c-0.364-0.161-0.497-0.375-0.354-0.807C77.087,32.526,77.188,32.075,77.315,31.602z"/>
	<path fill="#FFFFFF" d="M97.356,23.615c2.728,0.008,4.526,2.215,4.432,5.439c-0.074,2.517-1.29,4.479-3.156,5.093
		c-2.973,0.977-5.537-0.93-5.857-4.374c-0.154-1.661,0.112-3.2,1.109-4.522C94.796,24.04,95.991,23.613,97.356,23.615z
		 M94.759,28.917c0.144,0.737,0.229,1.426,0.417,2.079c0.272,0.948,0.87,1.543,1.778,1.673c0.946,0.136,1.654-0.327,2.108-1.214
		c0.843-1.646,0.834-3.322,0.002-4.98c-0.437-0.871-1.123-1.249-2.004-1.181c-0.863,0.067-1.493,0.579-1.8,1.45
		C95.015,27.441,94.918,28.202,94.759,28.917z"/>
	<path fill="#FFFFFF" d="M116.838,32.338c0.062,0.335,0.149,0.81,0.254,1.377c-0.375,0.138-0.739,0.354-1.117,0.394
		c-0.953,0.1-1.921,0.234-2.867,0.148c-1.825-0.165-3.232-1.655-3.579-3.68c-0.329-1.924-0.13-3.754,1.03-5.32
		c1.166-1.574,2.71-1.947,4.399-1.463c1.637,0.468,2.35,1.915,2.623,3.642c0.105,0.664,0.017,1.365,0.017,2.122
		c-2.078,0-4.093,0-6.1,0c-0.155,1.542,0.754,2.869,2.134,2.961C114.673,32.588,115.726,32.41,116.838,32.338z M115.612,27.842
		c0.064-1.623-0.779-2.713-2.027-2.674c-1.187,0.038-2.199,1.326-2.081,2.674C112.873,27.842,114.244,27.842,115.612,27.842z"/>
	<path fill="#FFFFFF" d="M91.372,32.43c0.041,0.58,0.077,1.09,0.113,1.585c-2.045,1.17-4.102-0.112-4.204-2.639
		c-0.068-1.674-0.022-3.354-0.027-5.031c-0.001-0.24,0-0.48,0-0.79c-0.471,0-0.881,0-1.318,0c0-0.597,0-1.122,0-1.727
		c0.439,0,0.848,0,1.299,0c0-0.652,0-1.227,0-1.872c0.661-0.22,1.299-0.432,2.026-0.674c0,0.887,0,1.678,0,2.548
		c0.799,0,1.528,0,2.291,0c0,0.605,0,1.128,0,1.728c-0.751,0-1.482,0-2.231,0c0,1.946-0.041,3.819,0.019,5.688
		c0.027,0.832,0.551,1.229,1.319,1.229C90.875,32.473,91.092,32.448,91.372,32.43z"/>
	<path fill="#FFFFFF" d="M105.644,34.009c-0.739,0-1.395,0-2.072,0c0-3.416,0-6.806,0-10.236c0.528,0,1.062,0,1.669,0
		c0.038,0.601,0.076,1.192,0.122,1.922c0.713-1.342,1.465-2.451,3.035-2.034c0,0.69,0,1.369,0,2.041
		c-0.056,0.023-0.096,0.057-0.128,0.049c-1.389-0.337-2.509,0.595-2.588,2.414c-0.071,1.653-0.03,3.313-0.038,4.969
		C105.643,33.401,105.644,33.667,105.644,34.009z"/>
	<path fill="#FFFFFF" d="M42.056,11.152c0-0.962,0.009-1.925-0.004-2.887c-0.005-0.348,0.074-0.57,0.421-0.567
		c0.741,0.006,1.492-0.076,2.219,0.036c1.972,0.304,2.938,2.116,2.432,4.439c-0.343,1.575-1.339,2.425-3.05,2.605
		c-2.019,0.212-2.019,0.212-2.019-2.014C42.056,12.226,42.056,11.689,42.056,11.152z M43.11,8.611c0,1.804,0,3.511,0,5.212
		c1.33,0.203,2.244-0.167,2.72-1.08c0.502-0.961,0.468-2.586-0.115-3.371C45.025,8.443,44.095,8.459,43.11,8.611z"/>
	<path fill="#FFFFFF" d="M27.156,7.035c0.322,3.232-2.275,6.556-4.814,6.224C21.807,10.543,24.551,6.974,27.156,7.035z"/>
	<path fill="#FFFFFF" d="M53.894,9.731c0.995-0.13,0.997-0.131,1.201,0.83c0.192,0.906,0.38,1.813,0.68,2.732
		c0.266-1.008,0.535-2.016,0.798-3.026c0.084-0.32,0.121-0.609,0.552-0.621c0.461-0.014,0.52,0.288,0.608,0.64
		c0.257,1.026,0.52,2.05,0.804,3.165c0.243-1.075,0.461-2.044,0.683-3.012c0.199-0.866,0.206-0.869,1.141-0.686
		c-0.246,0.876-0.489,1.745-0.732,2.613c-0.168,0.597-0.366,1.186-0.495,1.794c-0.092,0.431-0.275,0.552-0.662,0.566
		c-0.416,0.015-0.495-0.234-0.582-0.582c-0.248-0.989-0.515-1.971-0.788-3.008c-0.295,1.054-0.601,2.063-0.852,3.089
		c-0.104,0.426-0.311,0.48-0.647,0.496c-0.357,0.017-0.488-0.15-0.575-0.502C54.664,12.734,54.281,11.255,53.894,9.731z"/>
	<path fill="#FFFFFF" d="M84.916,14.685c-0.206,0-0.439,0-0.724,0c-0.032-0.159-0.068-0.338-0.109-0.539
		c-0.062,0.043-0.115,0.069-0.156,0.11c-0.961,0.985-2.346,0.708-2.899-0.615c-0.403-0.965-0.387-1.965,0.048-2.915
		c0.561-1.225,1.743-1.507,2.903-0.688c0-0.883,0-1.737,0-2.644c0.315,0,0.584,0,0.936,0C84.916,9.806,84.916,12.227,84.916,14.685z
		 M83.999,12.22c-0.007-0.001-0.015-0.002-0.022-0.003c0-0.133,0.004-0.267-0.001-0.4c-0.025-0.685-0.345-1.154-0.863-1.269
		c-0.518-0.115-1.109,0.165-1.225,0.787c-0.119,0.64-0.101,1.356,0.029,1.996c0.108,0.533,0.588,0.751,1.104,0.683
		c0.501-0.067,0.779-0.419,0.89-0.937C83.97,12.8,83.972,12.506,83.999,12.22z"/>
	<path fill="#FFFFFF" d="M108.227,14.687c-0.339,0-0.611,0-0.923,0c0-2.431,0-4.836,0-7.294c0.284,0,0.571,0,0.914,0
		c0,0.97,0,1.92,0,2.943c0.319-0.248,0.55-0.491,0.824-0.629c0.89-0.448,1.891,0.036,2.04,1.126
		c0.171,1.245,0.135,2.526,0.191,3.841c-0.405,0-0.714,0-1.12,0c0-0.795,0.002-1.59-0.001-2.384
		c-0.001-0.313,0.064-0.667-0.045-0.927c-0.137-0.326-0.376-0.7-0.654-0.828c-0.395-0.182-0.813,0.034-0.997,0.499
		c-0.132,0.336-0.206,0.721-0.22,1.089C108.205,12.965,108.227,13.811,108.227,14.687z"/>
	<path fill="#FFFFFF" d="M74.393,12.184c-0.007,1.6-0.919,2.651-2.289,2.638c-1.285-0.011-2.172-1.092-2.16-2.631
		c0.012-1.591,0.936-2.649,2.302-2.635C73.553,9.569,74.4,10.606,74.393,12.184z M70.963,12.268
		c0.045,0.253,0.074,0.567,0.159,0.861c0.152,0.53,0.453,0.895,0.991,0.917c0.567,0.023,0.949-0.331,1.058-0.892
		c0.106-0.549,0.124-1.15,0.046-1.704c-0.083-0.591-0.449-1.01-1.041-1.014c-0.619-0.004-0.936,0.442-1.101,1.044
		C71.012,11.711,71.005,11.963,70.963,12.268z"/>
	<path fill="#FFFFFF" d="M52.862,12.214c-0.018,1.615-0.93,2.638-2.324,2.608c-1.257-0.027-2.136-1.116-2.12-2.627
		c0.017-1.597,0.949-2.658,2.317-2.639C52.05,9.574,52.88,10.612,52.862,12.214z M49.448,12.347
		c0.036,0.194,0.065,0.507,0.154,0.797c0.159,0.52,0.459,0.883,0.995,0.902c0.564,0.02,0.924-0.334,1.058-0.887
		c0.111-0.458,0.149-0.964,0.105-1.436c-0.076-0.799-0.52-1.272-1.079-1.292c-0.588-0.02-1.043,0.463-1.181,1.267
		C49.469,11.872,49.47,12.053,49.448,12.347z"/>
	<path fill="#FFFFFF" d="M89.18,12.215c0.004-1.577,0.937-2.658,2.295-2.659c1.26-0.001,2.124,1.05,2.128,2.588
		c0.004,1.63-0.888,2.691-2.251,2.679C90.023,14.811,89.177,13.794,89.18,12.215z M90.24,12.396c0.015,0.109,0.014,0.364,0.086,0.59
		c0.18,0.567,0.428,1.076,1.077,1.061c0.516-0.011,0.984-0.454,1.144-1.099c0.048-0.192,0.075-0.394,0.086-0.594
		c0.06-1.05-0.464-1.885-1.197-1.92C90.736,10.4,90.237,11.162,90.24,12.396z"/>
	<path fill="#FFFFFF" d="M116.284,13.815c0.251,0.535,0.105,0.849-0.431,0.899c-0.475,0.044-0.964,0.125-1.43,0.052
		c-1.234-0.192-1.916-1.389-1.74-2.944c0.166-1.463,1.14-2.392,2.369-2.258c1.164,0.127,1.861,1.37,1.574,2.909
		c-0.975,0-1.966,0-2.962,0C113.773,13.798,114.291,14.049,116.284,13.815z M113.688,11.613c0.7,0,1.348,0,1.997,0
		c-0.032-0.844-0.282-1.216-0.826-1.272C114.221,10.274,113.904,10.604,113.688,11.613z"/>
	<path fill="#FFFFFF" d="M96.094,14.68c-0.351,0-0.622,0-0.946,0c0-1.663,0-3.286,0-4.962c0.234,0,0.501,0,0.812,0
		c0.031,0.163,0.066,0.345,0.101,0.533c0.067-0.023,0.115-0.024,0.139-0.05c0.547-0.602,1.185-0.872,1.909-0.49
		c0.762,0.401,0.985,1.168,0.972,2.061c-0.014,0.956-0.003,1.913-0.003,2.909c-0.366,0-0.674,0-1.082,0
		c0-1.099,0.039-2.168-0.024-3.231c-0.018-0.315-0.276-0.796-0.505-0.866c-0.307-0.093-0.78,0.031-1.02,0.267
		c-0.227,0.223-0.319,0.706-0.339,1.083C96.062,12.823,96.094,13.716,96.094,14.68z"/>
	<path fill="#FFFFFF" d="M62.727,14.686c-0.377,0-0.651,0-0.958,0c0-1.676,0-3.317,0-4.989c0.265,0,0.499,0,0.782,0
		c0.058,0.171,0.124,0.365,0.186,0.55c0.269-0.196,0.5-0.42,0.768-0.549c0.922-0.447,1.973,0.141,2.075,1.281
		c0.108,1.209,0.024,2.44,0.024,3.703c-0.285,0-0.577,0-0.962,0c0-1.058,0.048-2.104-0.027-3.14
		c-0.025-0.35-0.299-0.824-0.572-0.962c-0.247-0.124-0.739,0.025-0.956,0.252c-0.225,0.236-0.326,0.705-0.346,1.08
		C62.695,12.819,62.727,13.732,62.727,14.686z"/>
	<path fill="#FFFFFF" d="M76.157,10.637c-0.332-0.506-0.218-0.832,0.286-0.924c0.469-0.086,0.957-0.169,1.424-0.118
		c0.836,0.092,1.311,0.78,1.333,1.843c0.021,1.05,0.005,2.102,0.005,3.201c-0.324,0.046-0.725,0.309-0.895-0.276
		c-0.392,0.153-0.769,0.38-1.166,0.437c-0.755,0.109-1.311-0.31-1.501-1.016c-0.201-0.748,0.095-1.548,0.755-1.922
		c0.281-0.159,0.598-0.249,0.908-0.327c0.29-0.073,0.591-0.088,0.885-0.128C78.232,10.333,77.563,10.075,76.157,10.637z
		 M78.176,12.24c-0.446,0.125-0.87,0.173-1.232,0.365c-0.387,0.206-0.487,0.636-0.299,1.086c0.187,0.448,0.522,0.501,0.907,0.354
		C78.139,13.822,78.277,13.464,78.176,12.24z"/>
	<path fill="#FFFFFF" d="M105.791,14.627c-1.226,0.455-1.918-0.033-1.979-1.417c-0.038-0.868-0.007-1.74-0.007-2.642
		c-0.229-0.04-0.418-0.072-0.632-0.109c0-0.232,0-0.449,0-0.713c0.169-0.038,0.355-0.08,0.591-0.134
		c-0.067-0.742,0.208-1.166,0.959-1.098c0.026,0.365,0.053,0.734,0.081,1.134c0.334,0.018,0.63,0.033,0.986,0.052
		c0.01,0.241,0.02,0.475,0.033,0.777c-0.342,0-0.653,0-1.005,0c0,1.012-0.06,1.969,0.039,2.904c0.028,0.261,0.526,0.461,0.808,0.689
		c0.042-0.046,0.084-0.093,0.125-0.139C105.791,14.166,105.791,14.402,105.791,14.627z"/>
	<path fill="#FFFFFF" d="M68.429,14.685c-0.332,0-0.625,0-0.956,0c0-2.441,0-4.846,0-7.297c0.327,0,0.634,0,0.956,0
		C68.429,9.843,68.429,12.248,68.429,14.685z"/>
	<path d="M66.036,29.034c0.099-0.656,0.121-1.342,0.314-1.961c0.309-0.989,0.998-1.565,1.948-1.633
		c0.959-0.068,1.685,0.431,2.087,1.387c0.615,1.461,0.593,2.958-0.052,4.402c-0.466,1.043-1.384,1.497-2.423,1.296
		c-0.872-0.169-1.573-0.988-1.726-2.071c-0.065-0.462-0.064-0.935-0.093-1.403C66.073,29.046,66.055,29.04,66.036,29.034z"/>
	<path d="M60.261,29.033c-0.144,0.636-0.232,1.355-0.472,2.004c-0.42,1.133-1.282,1.63-2.374,1.504
		c-0.913-0.106-1.718-0.864-1.833-2.006c-0.105-1.051-0.092-2.151,0.067-3.192c0.17-1.116,1.095-1.869,2.001-1.908
		c1.029-0.044,1.898,0.594,2.253,1.746C60.076,27.743,60.133,28.351,60.261,29.033z"/>
	<path d="M47.879,28.171c-1.134,0-2.22,0-3.362,0c0.558-2.115,1.103-4.178,1.645-6.233C46.728,23.991,47.297,26.059,47.879,28.171z"
		/>
	<path d="M94.759,28.917c0.159-0.715,0.256-1.476,0.501-2.172c0.307-0.871,0.937-1.383,1.8-1.45c0.88-0.068,1.567,0.31,2.004,1.181
		c0.832,1.658,0.841,3.333-0.002,4.98c-0.454,0.887-1.162,1.35-2.108,1.214c-0.908-0.131-1.506-0.725-1.778-1.673
		C94.988,30.343,94.903,29.654,94.759,28.917z"/>
	<path d="M115.612,27.842c-1.368,0-2.739,0-4.108,0c-0.119-1.347,0.894-2.636,2.081-2.674
		C114.834,25.129,115.677,26.22,115.612,27.842z"/>
	<path d="M43.11,8.611c0.985-0.152,1.915-0.168,2.605,0.761c0.583,0.785,0.616,2.41,0.115,3.371c-0.476,0.913-1.39,1.282-2.72,1.08
		C43.11,12.122,43.11,10.415,43.11,8.611z"/>
	<path d="M83.999,12.22c-0.028,0.286-0.029,0.58-0.089,0.857c-0.111,0.517-0.389,0.87-0.89,0.937
		c-0.516,0.069-0.995-0.149-1.104-0.683c-0.13-0.64-0.148-1.356-0.029-1.996c0.116-0.623,0.708-0.903,1.225-0.787
		c0.518,0.115,0.838,0.584,0.863,1.269c0.005,0.133,0.001,0.267,0.001,0.4C83.985,12.218,83.992,12.219,83.999,12.22z"/>
	<path d="M70.963,12.268c0.041-0.305,0.048-0.557,0.112-0.789c0.165-0.602,0.483-1.048,1.101-1.044
		c0.592,0.004,0.958,0.423,1.041,1.014c0.078,0.554,0.06,1.155-0.046,1.704c-0.109,0.561-0.491,0.915-1.058,0.892
		c-0.538-0.022-0.839-0.387-0.991-0.917C71.038,12.835,71.008,12.521,70.963,12.268z"/>
	<path d="M49.448,12.347c0.022-0.295,0.021-0.475,0.051-0.648c0.138-0.804,0.593-1.287,1.181-1.267
		c0.559,0.019,1.003,0.493,1.079,1.292c0.045,0.471,0.006,0.978-0.105,1.436c-0.134,0.554-0.494,0.907-1.058,0.887
		c-0.535-0.019-0.835-0.382-0.995-0.902C49.513,12.854,49.484,12.542,49.448,12.347z"/>
	<path d="M90.24,12.396c-0.003-1.234,0.496-1.995,1.197-1.962c0.732,0.035,1.256,0.87,1.197,1.92
		c-0.011,0.199-0.039,0.402-0.086,0.594c-0.16,0.645-0.629,1.088-1.144,1.099c-0.649,0.014-0.897-0.494-1.077-1.061
		C90.254,12.76,90.254,12.505,90.24,12.396z"/>
	<path d="M113.688,11.613c0.217-1.009,0.533-1.339,1.171-1.272c0.545,0.057,0.795,0.429,0.826,1.272
		C115.036,11.613,114.387,11.613,113.688,11.613z"/>
	<path d="M78.176,12.24c0.101,1.225-0.037,1.582-0.624,1.805c-0.385,0.147-0.72,0.094-0.907-0.354
		c-0.188-0.45-0.088-0.88,0.299-1.086C77.306,12.412,77.73,12.365,78.176,12.24z"/>
</g>
</svg>
