<?xml version="1.0" encoding="utf-8"?>
<!-- Generator: Adobe Illustrator 17.0.0, SVG Export Plug-In . SVG Version: 6.00 Build 0)  -->
<!DOCTYPE svg PUBLIC "-//W3C//DTD SVG 1.1//EN" "http://www.w3.org/Graphics/SVG/1.1/DTD/svg11.dtd">
<svg version="1.1" id="Layer_1" xmlns="http://www.w3.org/2000/svg" xmlns:xlink="http://www.w3.org/1999/xlink" x="0px" y="0px"
	 width="19px" height="22px" viewBox="0 0 19 22" enable-background="new 0 0 19 22" xml:space="preserve">
<g>
	<path fill="#FFFFFF" d="M12.956,19.024c0,1.643-1.567,2.976-3.499,2.976c-1.056,0-2.004-0.398-2.645-1.028
		c-0.055-0.054-0.108-0.11-0.158-0.167c-0.033-0.038-0.066-0.077-0.098-0.117c-0.031-0.039-0.062-0.079-0.091-0.121
		c-0.029-0.041-0.057-0.082-0.084-0.124c-0.054-0.084-0.103-0.171-0.147-0.26c-0.044-0.089-0.084-0.181-0.117-0.273
		c-0.017-0.047-0.033-0.094-0.047-0.141c-0.072-0.238-0.11-0.487-0.11-0.744h1.996c0,0.538,0.635,0.976,1.431,0.999
		c0.022,0.001,0.043,0.001,0.065,0.001c0.026,0,0.052-0.001,0.077-0.001c0.796-0.023,1.431-0.461,1.431-0.999H12.956z"/>
	<path fill="#FFFFFF" d="M18.802,11.763c-0.033-0.133-0.071-0.265-0.115-0.394c-0.101-0.299-0.228-0.585-0.38-0.855
		c-0.036-0.066-0.074-0.13-0.113-0.193c-0.041-0.065-0.083-0.129-0.126-0.192c0-0.001-0.001-0.001-0.001-0.001
		c-0.132-0.138-0.257-0.29-0.375-0.455c-0.211-0.431-0.378-0.969-0.485-1.576c-0.08-0.449-0.127-0.937-0.134-1.447
		c0.025-0.158,0.039-0.319,0.039-0.483c0-0.107-0.006-0.213-0.017-0.318c-0.058-0.55-0.264-1.059-0.582-1.494
		c-0.016-0.012-0.03-0.024-0.046-0.035c-0.011-0.022-0.022-0.043-0.033-0.065c-0.002-0.003-0.004-0.007-0.006-0.011
		c-0.205-0.4-0.444-0.779-0.713-1.136c-1.427-1.889-3.688-3.111-6.235-3.111H9.435c-2.547,0-4.808,1.221-6.235,3.111
		C2.932,3.465,2.692,3.844,2.487,4.244C2.486,4.247,2.483,4.251,2.482,4.255C2.471,4.276,2.46,4.297,2.448,4.32
		c-0.016,0.011-0.03,0.023-0.046,0.035C2.084,4.79,1.878,5.299,1.82,5.849C1.808,5.954,1.803,6.06,1.803,6.167
		c0,0.164,0.013,0.326,0.039,0.483c-0.007,0.51-0.054,0.997-0.134,1.447C1.6,8.704,1.433,9.242,1.222,9.673
		C1.104,9.838,0.979,9.99,0.847,10.128c0,0.001-0.001,0.001-0.001,0.001c-0.043,0.063-0.085,0.127-0.126,0.192
		c-0.039,0.063-0.077,0.128-0.113,0.193c-0.151,0.27-0.279,0.556-0.38,0.855c-0.044,0.129-0.082,0.261-0.115,0.394
		c-0.101,0.403-0.155,0.826-0.155,1.261c0,2.652,1.985,4.82,4.485,4.964c0.088,0.006,0.177,0.008,0.267,0.008h9.493
		c0.09,0,0.179-0.003,0.267-0.008c2.501-0.144,4.485-2.312,4.485-4.964C18.957,12.589,18.903,12.166,18.802,11.763z M16.877,13.485
		c-0.179,1.331-1.171,2.372-2.406,2.499c-0.083,0.008-0.168,0.013-0.253,0.013c-0.087,0-0.173-0.004-0.258-0.013H4.955
		c-0.085,0.009-0.171,0.013-0.258,0.013c-0.085,0-0.17-0.004-0.253-0.013c-1.235-0.127-2.227-1.168-2.406-2.499
		c-0.028-0.153-0.043-0.312-0.043-0.474c0-0.286,0.046-0.561,0.13-0.813c0.094-0.284,0.236-0.541,0.415-0.758
		c0,0,0.001-0.001,0.001-0.001c0.1-0.077,0.196-0.172,0.283-0.283c0.025-0.032,0.05-0.066,0.074-0.1
		c0.662-0.678,1.105-1.788,1.142-3.052c0.063-0.376,0.098-0.768,0.103-1.172C4.133,6.744,4.129,6.655,4.129,6.565
		c0-0.063,0.002-0.124,0.006-0.186c0.014-0.226,0.056-0.442,0.12-0.644C4.3,5.595,4.355,5.461,4.42,5.337
		c0.001-0.003,0.003-0.006,0.004-0.009C4.85,4.411,5.514,3.628,6.337,3.06c0.887-0.614,1.959-0.979,3.115-0.994h0.012
		c1.156,0.016,2.227,0.381,3.115,0.994c0.822,0.568,1.486,1.352,1.912,2.268c0.002,0.003,0.003,0.006,0.004,0.009
		c0.065,0.124,0.121,0.258,0.165,0.398c0.064,0.202,0.106,0.418,0.12,0.644c0.004,0.062,0.006,0.123,0.006,0.186
		c0,0.09-0.004,0.179-0.013,0.266c0.005,0.404,0.04,0.796,0.103,1.172c0.037,1.264,0.48,2.374,1.142,3.052
		c0.024,0.034,0.048,0.068,0.074,0.1c0.087,0.111,0.183,0.206,0.283,0.283c0,0.001,0.001,0.001,0.001,0.001
		c0.178,0.217,0.321,0.473,0.415,0.758c0.084,0.252,0.13,0.527,0.13,0.813C16.92,13.173,16.905,13.332,16.877,13.485z"/>
</g>
</svg>
