<?xml version="1.0" encoding="utf-8"?>
<!-- Generator: Adobe Illustrator 17.0.0, SVG Export Plug-In . SVG Version: 6.00 Build 0)  -->
<!DOCTYPE svg PUBLIC "-//W3C//DTD SVG 1.1//EN" "http://www.w3.org/Graphics/SVG/1.1/DTD/svg11.dtd">
<svg version="1.1" id="Layer_1" xmlns="http://www.w3.org/2000/svg" xmlns:xlink="http://www.w3.org/1999/xlink" x="0px" y="0px"
	 width="15px" height="13px" viewBox="0 0 15 13" enable-background="new 0 0 15 13" xml:space="preserve">
<g>
	<path fill="#263238" d="M0,0v12c0,0.55,0.45,1,1,1h13c0.55,0,1-0.45,1-1V0H0z M7.53,12c-2.48,0-4.49-1.79-4.49-4s2.01-4,4.49-4
		c2.48,0,4.49,1.79,4.49,4S10.01,12,7.53,12z M14,3.48H1V1h13V3.48z"/>
	<path fill="#263238" d="M10.02,7.98c0,1.11-1.11,2-2.5,2c-1.38,0-2.5-0.89-2.5-2c0-1.1,1.12-2,2.5-2
		C8.91,5.98,10.02,6.88,10.02,7.98z"/>
</g>
</svg>
