<?xml version="1.0" encoding="utf-8"?>
<!-- Generator: Adobe Illustrator 17.0.0, SVG Export Plug-In . SVG Version: 6.00 Build 0)  -->
<!DOCTYPE svg PUBLIC "-//W3C//DTD SVG 1.1//EN" "http://www.w3.org/Graphics/SVG/1.1/DTD/svg11.dtd">
<svg version="1.1" id="Layer_1" xmlns="http://www.w3.org/2000/svg" xmlns:xlink="http://www.w3.org/1999/xlink" x="0px" y="0px"
	 width="18px" height="18px" viewBox="0 0 18 18" enable-background="new 0 0 18 18" xml:space="preserve">
<g>
	
		<linearGradient id="SVGID_1_" gradientUnits="userSpaceOnUse" x1="15.1356" y1="20.5853" x2="15.1356" y2="19.7038" gradientTransform="matrix(18 0 0 18 -263.375 -353.375)">
		<stop  offset="0" style="stop-color:#F2892B"/>
		<stop  offset="1" style="stop-color:#FCE770"/>
	</linearGradient>
	<path fill="url(#SVGID_1_)" d="M17.834,9c0,4.981-3.946,9.056-8.768,9.056S0.298,13.981,0.298,9s3.946-9.056,8.768-9.056
		S17.834,4.019,17.834,9z"/>
	
		<radialGradient id="SVGID_2_" cx="14.6149" cy="19.9411" r="0.3316" gradientTransform="matrix(26.4412 0 0 27.311 -377.3709 -535.6119)" gradientUnits="userSpaceOnUse">
		<stop  offset="0" style="stop-color:#F2892B;stop-opacity:0"/>
		<stop  offset="1" style="stop-color:#EF8422;stop-opacity:0.34"/>
	</radialGradient>
	<path fill="url(#SVGID_2_)" d="M17.834,9c0,4.981-3.946,9.056-8.768,9.056S0.298,13.981,0.298,9s3.946-9.056,8.768-9.056
		S17.834,4.019,17.834,9z"/>
	
		<radialGradient id="SVGID_3_" cx="21.7022" cy="15.2132" r="0.067" gradientTransform="matrix(24.1273 11.1729 -8.367 19.2761 -394.1327 -526.3651)" gradientUnits="userSpaceOnUse">
		<stop  offset="0" style="stop-color:#F2892B;stop-opacity:0.5"/>
		<stop  offset="1" style="stop-color:#F2892B;stop-opacity:0"/>
	</radialGradient>
	<path fill="url(#SVGID_3_)" d="M17.834,9c0,4.981-3.946,9.056-8.768,9.056S0.298,13.981,0.298,9s3.946-9.056,8.768-9.056
		S17.834,4.019,17.834,9z"/>
	
		<radialGradient id="SVGID_4_" cx="-1.8887" cy="72.1308" r="0.1877" gradientTransform="matrix(20.7668 -16.9055 5.9546 7.8036 -376.981 -581.5375)" gradientUnits="userSpaceOnUse">
		<stop  offset="0" style="stop-color:#F2892B;stop-opacity:0.5"/>
		<stop  offset="1" style="stop-color:#F2892B;stop-opacity:0"/>
	</radialGradient>
	<path fill="url(#SVGID_4_)" d="M17.834,9c0,4.981-3.946,9.056-8.768,9.056S0.298,13.981,0.298,9s3.946-9.056,8.768-9.056
		S17.834,4.019,17.834,9z"/>
	
		<radialGradient id="SVGID_5_" cx="10.3536" cy="119.4359" r="0.071" gradientTransform="matrix(26.0106 -4.9095 0.9453 5.3425 -376.3222 -585.019)" gradientUnits="userSpaceOnUse">
		<stop  offset="0" style="stop-color:#D36127;stop-opacity:0.15"/>
		<stop  offset="1" style="stop-color:#F2892B;stop-opacity:0"/>
	</radialGradient>
	<path fill="url(#SVGID_5_)" d="M17.834,9c0,4.981-3.946,9.056-8.768,9.056S0.298,13.981,0.298,9s3.946-9.056,8.768-9.056
		S17.834,4.019,17.834,9z"/>
	
		<radialGradient id="SVGID_6_" cx="18.723" cy="88.2365" r="0.0703" gradientTransform="matrix(25.9071 5.4613 -1.0515 5.3215 -380.04 -569.4329)" gradientUnits="userSpaceOnUse">
		<stop  offset="0" style="stop-color:#D36127;stop-opacity:0.15"/>
		<stop  offset="1" style="stop-color:#D36127;stop-opacity:0"/>
	</radialGradient>
	<path fill="url(#SVGID_6_)" d="M17.834,9c0,4.981-3.946,9.056-8.768,9.056S0.298,13.981,0.298,9s3.946-9.056,8.768-9.056
		S17.834,4.019,17.834,9z"/>
	
		<linearGradient id="SVGID_7_" gradientUnits="userSpaceOnUse" x1="76.7044" y1="366.8063" x2="76.7044" y2="368.3348" gradientTransform="matrix(3.8289 0 0 1.0546 -284.6302 -380.8707)">
		<stop  offset="0" style="stop-color:#482415"/>
		<stop  offset="1" style="stop-color:#9A4422"/>
	</linearGradient>
	<path fill="url(#SVGID_7_)" d="M10.929,6.623c-0.11-0.34-3.617-0.34-3.726,0c-0.11,0.34,0.658,0.792,1.863,0.792
		S11.039,6.962,10.929,6.623z"/>
	
		<radialGradient id="SVGID_8_" cx="-162.9459" cy="120.0421" r="0.5783" gradientTransform="matrix(0 -3.6402 3.5245 0 -417.3125 -588.3791)" gradientUnits="userSpaceOnUse">
		<stop  offset="0" style="stop-color:#3C456C"/>
		<stop  offset="0.688" style="stop-color:#212340"/>
	</radialGradient>
	<path fill="url(#SVGID_8_)" d="M6.874,4.585c0,0.792-0.438,1.019-1.096,1.132S4.573,5.491,4.573,4.585C4.573,3.906,4.901,3,5.778,3
		C6.545,3,6.874,3.906,6.874,4.585z"/>
	<path fill="#4F516A" d="M5.669,3.453c0.11,0.113,0.11,0.453-0.11,0.566c-0.11,0.113-0.329,0.226-0.438,0
		c-0.11-0.226-0.11-0.34,0-0.566C5.34,3.34,5.559,3.34,5.669,3.453z"/>
	
		<radialGradient id="SVGID_9_" cx="-162.9601" cy="119.0924" r="0.5783" gradientTransform="matrix(0 -3.6402 3.5245 0 -407.3739 -588.432)" gradientUnits="userSpaceOnUse">
		<stop  offset="0" style="stop-color:#3C456C"/>
		<stop  offset="0.688" style="stop-color:#212340"/>
	</radialGradient>
	<path fill="url(#SVGID_9_)" d="M11.258,4.585c0,0.792,0.438,1.019,1.206,1.132c0.658,0.113,1.206-0.226,1.206-1.132
		C13.669,3.906,13.341,3,12.464,3S11.258,3.906,11.258,4.585z"/>
	<path fill="#4F516A" d="M12.354,3.453c0.11,0.113,0,0.34-0.11,0.566c-0.11,0.113-0.329,0.113-0.438,0s0-0.34,0.11-0.566
		C12.135,3.227,12.245,3.227,12.354,3.453z"/>
	
		<radialGradient id="SVGID_10_" cx="-294.6076" cy="24.5384" r="0.1976" gradientTransform="matrix(-0.5602 -2.2492 10.0941 -2.6821 -406.9585 -594.946)" gradientUnits="userSpaceOnUse">
		<stop  offset="0" style="stop-color:#E28425"/>
		<stop  offset="1" style="stop-color:#CC6928"/>
	</radialGradient>
	<path fill="url(#SVGID_10_)" d="M4.025,2.321c-0.219,0.226,0,0.566,0.329,0.453c0.658-0.34,1.973-0.679,3.069-0.566
		c0.329,0,0.438,0,0.329-0.453c0-0.34-0.438-0.566-1.315-0.453C5.121,1.415,4.244,2.095,4.025,2.321z"/>
	
		<radialGradient id="SVGID_11_" cx="-214.8995" cy="37.6332" r="0.2082" gradientTransform="matrix(0.4259 -2.2803 13.1013 2.6104 -389.2429 -586.596)" gradientUnits="userSpaceOnUse">
		<stop  offset="0" style="stop-color:#E28425"/>
		<stop  offset="1" style="stop-color:#CC6928"/>
	</radialGradient>
	<path fill="url(#SVGID_11_)" d="M11.697,1.302c-0.877-0.113-1.315,0.113-1.315,0.453c-0.11,0.453,0,0.453,0.329,0.453
		c1.206-0.113,2.521,0.226,3.069,0.566C14.217,3,14.327,2.547,14.108,2.321C13.888,2.095,13.012,1.415,11.697,1.302z"/>
	
		<linearGradient id="SVGID_12_" gradientUnits="userSpaceOnUse" x1="25.83" y1="36.4342" x2="25.5916" y2="37.1495" gradientTransform="matrix(10.9683 0 0 10.2139 -275.5695 -361.1634)">
		<stop  offset="0" style="stop-color:#EF4663"/>
		<stop  offset="1" style="stop-color:#CC2027"/>
	</linearGradient>
	<path fill="url(#SVGID_12_)" d="M10.929,9.566c-2.302-0.679-3.069,0.906-3.069,0.906S8.08,8.66,5.778,7.868
		C3.586,7.189,2.271,9.34,2.162,10.585c-0.219,2.83,2.192,6,3.069,7.132c0.11,0.34,0.438,0.34,0.767,0.34
		c1.315-0.34,5.042-1.585,6.466-4.075C13.012,12.736,13.121,10.245,10.929,9.566z"/>
	
		<radialGradient id="SVGID_13_" cx="38.4553" cy="23.8729" r="0.1923" gradientTransform="matrix(14.0634 5.4001 -5.2283 14.526 -406.0129 -542.118)" gradientUnits="userSpaceOnUse">
		<stop  offset="0" style="stop-color:#F27091;stop-opacity:0.7"/>
		<stop  offset="1" style="stop-color:#F16D8D;stop-opacity:0"/>
	</radialGradient>
	<path fill="url(#SVGID_13_)" d="M10.929,9.566c-2.302-0.679-3.069,0.906-3.069,0.906S8.08,8.66,5.778,7.868
		C3.586,7.189,2.271,9.34,2.162,10.585c-0.219,2.83,2.192,6,3.069,7.132c0.11,0.34,0.438,0.34,0.767,0.34
		c1.315-0.34,5.042-1.585,6.466-4.075C13.012,12.736,13.121,10.245,10.929,9.566z"/>
	
		<radialGradient id="SVGID_14_" cx="38.1625" cy="23.7139" r="0.1923" gradientTransform="matrix(14.0634 5.4001 -5.2283 14.526 -407.7365 -539.7283)" gradientUnits="userSpaceOnUse">
		<stop  offset="0" style="stop-color:#F27091;stop-opacity:0.7"/>
		<stop  offset="1" style="stop-color:#F16D8D;stop-opacity:0"/>
	</radialGradient>
	<path fill="url(#SVGID_14_)" d="M10.929,9.566c-2.302-0.679-3.069,0.906-3.069,0.906S8.08,8.66,5.778,7.868
		C3.586,7.189,2.271,9.34,2.162,10.585c-0.219,2.83,2.192,6,3.069,7.132c0.11,0.34,0.438,0.34,0.767,0.34
		c1.315-0.34,5.042-1.585,6.466-4.075C13.012,12.736,13.121,10.245,10.929,9.566z"/>
	
		<radialGradient id="SVGID_15_" cx="29.3692" cy="-27.2768" r="0.1651" gradientTransform="matrix(-3.0194 15.1801 -20.2375 -4.2943 -458.6709 -549.7043)" gradientUnits="userSpaceOnUse">
		<stop  offset="0" style="stop-color:#9C1C1F"/>
		<stop  offset="1" style="stop-color:#9C1C1F;stop-opacity:0"/>
	</radialGradient>
	<path fill="url(#SVGID_15_)" d="M10.929,9.566c-2.302-0.679-3.069,0.906-3.069,0.906S8.08,8.66,5.778,7.868
		C3.586,7.189,2.271,9.34,2.162,10.585c-0.219,2.83,2.192,6,3.069,7.132c0.11,0.34,0.438,0.34,0.767,0.34
		c1.315-0.34,5.042-1.585,6.466-4.075C13.012,12.736,13.121,10.245,10.929,9.566z"/>
	
		<radialGradient id="SVGID_16_" cx="42.5055" cy="12.8843" r="0.0995" gradientTransform="matrix(12.9099 7.8965 -9.5947 16.7353 -412.3145 -537.7469)" gradientUnits="userSpaceOnUse">
		<stop  offset="0" style="stop-color:#9C1C1F;stop-opacity:0.5"/>
		<stop  offset="1" style="stop-color:#9C1C1F;stop-opacity:0"/>
	</radialGradient>
	<path fill="url(#SVGID_16_)" d="M10.929,9.566c-2.302-0.679-3.069,0.906-3.069,0.906S8.08,8.66,5.778,7.868
		C3.586,7.189,2.271,9.34,2.162,10.585c-0.219,2.83,2.192,6,3.069,7.132c0.11,0.34,0.438,0.34,0.767,0.34
		c1.315-0.34,5.042-1.585,6.466-4.075C13.012,12.736,13.121,10.245,10.929,9.566z"/>
	
		<radialGradient id="SVGID_17_" cx="11.8994" cy="33.3913" r="0.0862" gradientTransform="matrix(14.0846 -5.3408 6.6634 18.7473 -387.5437 -552.183)" gradientUnits="userSpaceOnUse">
		<stop  offset="0" style="stop-color:#9C1C1F;stop-opacity:0.5"/>
		<stop  offset="1" style="stop-color:#9C1C1F;stop-opacity:0"/>
	</radialGradient>
	<path fill="url(#SVGID_17_)" d="M10.929,9.566c-2.302-0.679-3.069,0.906-3.069,0.906S8.08,8.66,5.778,7.868
		C3.586,7.189,2.271,9.34,2.162,10.585c-0.219,2.83,2.192,6,3.069,7.132c0.11,0.34,0.438,0.34,0.767,0.34
		c1.315-0.34,5.042-1.585,6.466-4.075C13.012,12.736,13.121,10.245,10.929,9.566z"/>
	
		<radialGradient id="SVGID_18_" cx="43.2876" cy="12.8295" r="0.1161" gradientTransform="matrix(12.4282 8.682 -9.1037 13.9032 -411.1005 -538.4987)" gradientUnits="userSpaceOnUse">
		<stop  offset="0" style="stop-color:#9C1C1F;stop-opacity:0.999"/>
		<stop  offset="1" style="stop-color:#9C1C1F;stop-opacity:0"/>
	</radialGradient>
	<path fill="url(#SVGID_18_)" d="M10.929,9.566c-2.302-0.679-3.069,0.906-3.069,0.906S8.08,8.66,5.778,7.868
		C3.586,7.189,2.271,9.34,2.162,10.585c-0.219,2.83,2.192,6,3.069,7.132c0.11,0.34,0.438,0.34,0.767,0.34
		c1.315-0.34,5.042-1.585,6.466-4.075C13.012,12.736,13.121,10.245,10.929,9.566z"/>
	<defs>
		<filter id="Adobe_OpacityMaskFilter" filterUnits="userSpaceOnUse" x="0.063" y="8.164" width="7.474" height="6.157">
			<feColorMatrix  type="matrix" values="1 0 0 0 0  0 1 0 0 0  0 0 1 0 0  0 0 0 1 0"/>
		</filter>
	</defs>
	<mask maskUnits="userSpaceOnUse" x="0.063" y="8.164" width="7.474" height="6.157" id="u_1_">
		<g filter="url(#Adobe_OpacityMaskFilter)">
			<path fill="#FFFFFF" d="M17.834,9c0,4.981-3.946,9.056-8.768,9.056S0.298,13.981,0.298,9s3.946-9.056,8.768-9.056
				S17.834,4.019,17.834,9z"/>
		</g>
	</mask>
	
		<radialGradient id="SVGID_19_" cx="74.3014" cy="20.315" r="0.8131" gradientTransform="matrix(7.2023 5.5085 -5.3329 7.4392 -426.5916 -552.0136)" gradientUnits="userSpaceOnUse">
		<stop  offset="0" style="stop-color:#EDA839"/>
		<stop  offset="1" style="stop-color:#FFDC60"/>
	</radialGradient>
	<path mask="url(#u_1_)" fill="url(#SVGID_19_)" d="M1.723,8.66C1.175,8.094,0.189,7.755,0.079,9.113
		c-0.11,1.019,0.329,2.83,1.534,3.849c3.069,2.49,5.809,1.132,5.918-0.679c0.11-1.358-1.534-1.245-1.973-1.245v-0.113
		c0.11-0.113,0.329-0.226,0.438-0.34c0.438-0.34,0.219-0.906-0.329-0.792c-0.11,0-1.425,0.453-2.302,0.113
		C2.49,9.566,2.381,9.226,1.723,8.66z"/>
	
		<radialGradient id="SVGID_20_" cx="268.915" cy="-328.8835" r="5.8666" gradientTransform="matrix(1.6526 0 0 -1.7069 -426.9482 -552.6812)" gradientUnits="userSpaceOnUse">
		<stop  offset="0" style="stop-color:#EDA839"/>
		<stop  offset="1" style="stop-color:#FFDC60"/>
	</radialGradient>
	<path fill="url(#SVGID_20_)" d="M15.971,8.774c0.329-0.679,0.877-0.453,1.206-0.34c0.438,0.113,0.767,0.453,0.767,1.132
		c0,1.698-0.219,3.283-1.644,4.868c-2.521,2.943-6.795,2.49-7.233,0.679c-0.329-1.358,1.206-1.585,1.754-1.585v-0.113
		c-0.219-0.113-0.329-0.226-0.548-0.34c-0.438-0.34-0.329-1.019,0.219-0.906c0.658,0.113,1.534,0.34,2.192,0.226
		C14.765,12.17,15.094,10.472,15.971,8.774z"/>
</g>
</svg>
