<?xml version="1.0" encoding="utf-8"?>
<!-- Generator: Adobe Illustrator 17.0.0, SVG Export Plug-In . SVG Version: 6.00 Build 0)  -->
<!DOCTYPE svg PUBLIC "-//W3C//DTD SVG 1.1//EN" "http://www.w3.org/Graphics/SVG/1.1/DTD/svg11.dtd">
<svg version="1.1" id="Layer_1" xmlns="http://www.w3.org/2000/svg" xmlns:xlink="http://www.w3.org/1999/xlink" x="0px" y="0px"
	 width="14px" height="13px" viewBox="0 0 14 13" enable-background="new 0 0 14 13" xml:space="preserve">
<g>
	<path fill="#666666" d="M5.135,3.366c0.36-0.332,0.721-0.664,1.081-0.997c0.506-0.468,1.013-0.936,1.518-1.406
		c1.365-1.271,3.501-1.273,4.87-0.003c0.35,0.325,0.711,0.639,0.96,1.045c0.748,1.217,0.531,2.777-0.536,3.768
		c-0.905,0.841-1.811,1.68-2.718,2.519C8.965,9.536,6.864,9.553,5.501,8.327C5.227,8.08,4.968,7.817,4.718,7.548
		C4.6,7.422,4.522,7.264,4.424,7.122C4.381,7.061,4.392,7.014,4.448,6.964C4.74,6.696,5.024,6.419,5.325,6.16
		C5.451,6.05,5.613,5.975,5.781,5.87C5.804,5.953,5.818,6.001,5.83,6.049c0.089,0.351,0.312,0.625,0.592,0.863
		c0.189,0.161,0.365,0.341,0.576,0.471C7.642,7.78,8.503,7.69,9.049,7.186c0.914-0.844,1.826-1.689,2.738-2.535
		c0.642-0.595,0.65-1.552,0.018-2.156c-0.153-0.146-0.309-0.29-0.466-0.432C10.68,1.466,9.66,1.464,9.002,2.063
		C8.508,2.513,8.023,2.97,7.53,3.42C7.493,3.454,7.411,3.48,7.365,3.466C6.654,3.252,5.935,3.223,5.207,3.379
		C5.189,3.383,5.171,3.385,5.153,3.388C5.147,3.381,5.141,3.374,5.135,3.366z"/>
	<path fill="#666666" d="M8.236,7.12C8.162,6.931,8.122,6.777,8.043,6.643C7.955,6.493,7.84,6.354,7.719,6.224
		c-0.127-0.138-0.275-0.26-0.414-0.388c-0.667-0.616-1.7-0.623-2.369-0.007C4.027,6.664,3.122,7.504,2.219,8.346
		C1.563,8.958,1.563,9.902,2.213,10.52c0.15,0.143,0.302,0.284,0.456,0.423c0.657,0.593,1.685,0.589,2.338-0.012
		c0.485-0.446,0.968-0.893,1.448-1.343C6.524,9.524,6.58,9.512,6.674,9.54C7.356,9.744,8.049,9.777,8.75,9.629
		c0.034-0.007,0.069-0.011,0.12,0.007c-0.308,0.282-0.617,0.563-0.924,0.847c-0.57,0.526-1.137,1.054-1.707,1.58
		c-1.327,1.224-3.434,1.24-4.779,0.032c-0.372-0.334-0.751-0.663-1.014-1.088C-0.3,9.804-0.111,8.259,0.936,7.266
		C1.87,6.38,2.815,5.501,3.774,4.638c1.279-1.151,3.324-1.167,4.634-0.045c0.418,0.358,0.84,0.718,1.116,1.193
		c0.105,0.18,0.107,0.178-0.047,0.32C9.215,6.348,8.962,6.597,8.69,6.829C8.56,6.94,8.397,7.018,8.236,7.12z"/>
</g>
</svg>
