<?xml version="1.0" encoding="utf-8"?>
<!-- Generator: Adobe Illustrator 17.0.0, SVG Export Plug-In . SVG Version: 6.00 Build 0)  -->
<!DOCTYPE svg PUBLIC "-//W3C//DTD SVG 1.1//EN" "http://www.w3.org/Graphics/SVG/1.1/DTD/svg11.dtd">
<svg version="1.1" id="Layer_1" xmlns="http://www.w3.org/2000/svg" xmlns:xlink="http://www.w3.org/1999/xlink" x="0px" y="0px"
	 width="23px" height="22px" viewBox="0 0 23 22" enable-background="new 0 0 23 22" xml:space="preserve">
<g>
	<path fill="#FFFFFF" d="M23,10.974c-0.179,4.211-1.992,7.476-5.699,9.531c-3.67,2.033-7.416,1.929-11.061-0.148
		c-0.627-0.357-1.15-0.462-1.828-0.228c-0.942,0.324-1.904,0.624-2.883,0.791c-0.451,0.077-1.109-0.042-1.4-0.336
		c-0.253-0.256-0.133-0.883-0.152-1.347c-0.004-0.11,0.09-0.227,0.147-0.337c1.013-1.949,1.47-3.784,0.956-6.167
		C-0.205,6.778,4.03,1.207,10.128,0.157c5.891-1.014,11.579,2.975,12.682,8.908C22.927,9.701,22.94,10.355,23,10.974z M2.681,18.192
		c0.083,0.033,0.164,0.066,0.247,0.098c0.712-0.191,1.443-0.33,2.129-0.588c0.608-0.23,1.024-0.08,1.521,0.29
		c3.462,2.579,8.18,2.328,11.36-0.568c3.129-2.849,3.766-7.523,1.511-11.084c-2.293-3.62-6.821-5.097-10.809-3.524
		c-3.997,1.577-6.423,5.744-5.386,9.874C3.749,14.663,4.278,16.436,2.681,18.192z"/>
	<path fill="#FFFFFF" d="M18.035,11.007c-0.018,0.82-0.693,1.449-1.524,1.42c-0.778-0.027-1.419-0.676-1.425-1.441
		c-0.006-0.806,0.67-1.467,1.494-1.462C17.418,9.529,18.053,10.177,18.035,11.007z"/>
	<path fill="#FFFFFF" d="M8.701,11.007c-0.018,0.823-0.69,1.453-1.519,1.423c-0.829-0.03-1.445-0.702-1.404-1.533
		c0.039-0.791,0.663-1.375,1.467-1.37C8.077,9.53,8.718,10.182,8.701,11.007z"/>
	<path fill="#FFFFFF" d="M11.868,12.425c-0.824-0.017-1.466-0.693-1.432-1.51c0.032-0.781,0.667-1.386,1.457-1.389
		c0.839-0.003,1.473,0.627,1.468,1.462C13.359,11.817,12.708,12.443,11.868,12.425z"/>
</g>
</svg>
