<?xml version="1.0" encoding="utf-8"?>
<!-- Generator: Adobe Illustrator 17.0.0, SVG Export Plug-In . SVG Version: 6.00 Build 0)  -->
<!DOCTYPE svg PUBLIC "-//W3C//DTD SVG 1.1//EN" "http://www.w3.org/Graphics/SVG/1.1/DTD/svg11.dtd">
<svg version="1.1" id="Layer_1" xmlns="http://www.w3.org/2000/svg" xmlns:xlink="http://www.w3.org/1999/xlink" x="0px" y="0px"
	 width="18px" height="19px" viewBox="0 0 18 19" enable-background="new 0 0 18 19" xml:space="preserve">
<g>
	<path fill="#010101" d="M16.38,1.472c0.285,0,0.517,0.3,0.517,0.669v10.342c0,0.369-0.232,0.669-0.517,0.669h-8.88l-3.018,2.926
		v-2.926H1.618c-0.285,0-0.517-0.3-0.517-0.669V2.143c0-0.369,0.232-0.669,0.517-0.669L16.38,1.472 M16.38,0.028H1.618
		c-0.903,0-1.636,0.947-1.636,2.115v10.342c0,1.168,0.732,2.115,1.636,2.115h1.746v4.373L7.873,14.6h8.509
		c0.903,0,1.636-0.947,1.636-2.115V2.143C18.016,0.975,17.283,0.028,16.38,0.028L16.38,0.028z"/>
</g>
</svg>
