<?xml version="1.0" encoding="utf-8"?>
<!-- Generator: Adobe Illustrator 17.0.0, SVG Export Plug-In . SVG Version: 6.00 Build 0)  -->
<!DOCTYPE svg PUBLIC "-//W3C//DTD SVG 1.1//EN" "http://www.w3.org/Graphics/SVG/1.1/DTD/svg11.dtd">
<svg version="1.1" id="Layer_1" xmlns="http://www.w3.org/2000/svg" xmlns:xlink="http://www.w3.org/1999/xlink" x="0px" y="0px"
	 width="44px" height="44px" viewBox="0 0 44 44" enable-background="new 0 0 44 44" xml:space="preserve">
<g>
	<path fill="#E1E1E1" d="M22,0.119C9.913,0.119,0.12,9.916,0.12,22c0,5.944,2.371,11.337,6.221,15.279
		C10.31,41.354,15.86,43.881,22,43.881c6.079,0,11.578-2.48,15.54-6.479c3.922-3.952,6.34-9.397,6.34-15.401
		C43.88,9.916,34.083,0.119,22,0.119z M15.361,10.836c0.807-2.829,3.413-4.899,6.5-4.899c3.043,0,5.614,2.008,6.462,4.773
		c0.193,0.628,0.298,1.293,0.298,1.985c0,3.735-3.026,6.761-6.761,6.761c-3.732,0-6.761-3.026-6.761-6.761
		C15.1,12.05,15.191,11.426,15.361,10.836z M22,37.12c-5.798,0-10.856-2.792-13.545-6.941c2.704-4.098,7.731-6.852,13.488-6.852
		c5.798,0,10.856,2.792,13.545,6.941C32.781,34.365,27.753,37.12,22,37.12z"/>
	<path fill="#A3A3A2" d="M35.488,30.268c-2.707,4.098-7.735,6.852-13.488,6.852c-5.798,0-10.856-2.792-13.545-6.941
		c2.704-4.098,7.731-6.852,13.488-6.852C27.74,23.327,32.797,26.119,35.488,30.268z"/>
	<path fill="#A3A3A2" d="M28.622,12.695c0,3.735-3.026,6.761-6.761,6.761c-3.732,0-6.761-3.026-6.761-6.761
		c0-0.644,0.092-1.269,0.261-1.859c0.807-2.829,3.413-4.899,6.5-4.899c3.043,0,5.614,2.008,6.462,4.773
		C28.516,11.338,28.622,12.003,28.622,12.695z"/>
</g>
</svg>
