<?xml version="1.0" encoding="utf-8"?>
<!-- Generator: Adobe Illustrator 17.0.0, SVG Export Plug-In . SVG Version: 6.00 Build 0)  -->
<!DOCTYPE svg PUBLIC "-//W3C//DTD SVG 1.1//EN" "http://www.w3.org/Graphics/SVG/1.1/DTD/svg11.dtd">
<svg version="1.1" id="Layer_1" xmlns="http://www.w3.org/2000/svg" xmlns:xlink="http://www.w3.org/1999/xlink" x="0px" y="0px"
	 width="10px" height="13px" viewBox="0 0 10 13" enable-background="new 0 0 10 13" xml:space="preserve">
<path fill="#666766" d="M9.656,3.545c0-0.158-0.016-0.316-0.026-0.496H0.383c-0.01,0.186-0.026,0.344-0.026,0.502
	c-0.002,2.792-0.003,5.584-0.001,8.376c0,0.794,0.315,1.069,1.249,1.071c2.27,0.004,4.54,0.004,6.81,0
	c0.926-0.002,1.242-0.281,1.242-1.078C9.659,9.128,9.658,6.336,9.656,3.545z M3.168,10.467c-0.001,0.282-0.01,0.603-0.448,0.601
	c-0.441-0.003-0.437-0.328-0.438-0.607C2.281,8.834,2.282,7.205,2.282,5.577c0-0.065-0.023-0.146,0.012-0.19
	c0.124-0.155,0.269-0.297,0.406-0.444c0.154,0.149,0.434,0.292,0.442,0.447c0.042,0.869,0.02,1.74,0.02,2.611h0.008
	C3.171,8.824,3.173,9.645,3.168,10.467z M5.443,10.644c-0.128,0.152-0.279,0.29-0.421,0.433c-0.153-0.15-0.43-0.296-0.438-0.452
	c-0.042-0.869-0.02-1.741-0.02-2.612H4.56c0-0.807-0.002-1.613,0.002-2.42c0.002-0.291-0.029-0.641,0.457-0.637
	C5.464,4.959,5.45,5.29,5.451,5.565c0.003,1.63,0.002,3.259,0.001,4.889C5.452,10.518,5.479,10.601,5.443,10.644z M7.73,10.471
	c-0.001,0.281-0.006,0.603-0.449,0.597c-0.437-0.007-0.437-0.33-0.437-0.61C6.841,8.83,6.842,7.201,6.843,5.573
	c0-0.064-0.023-0.146,0.012-0.19C6.982,5.23,7.129,5.089,7.267,4.944C7.42,5.093,7.696,5.239,7.704,5.394
	c0.042,0.87,0.021,1.74,0.021,2.611h0.006C7.731,8.827,7.733,9.649,7.73,10.471z"/>
<path fill="#666766" d="M8.798,1.249c-0.547-0.003-1.095,0-1.644,0C7.137,1.099,7.127,1.036,7.122,0.974
	C7.068,0.216,6.817,0.005,5.958,0.002C5.252,0,4.545-0.005,3.839,0.005C3.29,0.013,2.98,0.259,2.905,0.726
	C2.88,0.882,2.874,1.039,2.854,1.249c-0.563,0-1.098-0.002-1.632,0C0.116,1.254-0.081,1.443,0.025,2.447h9.959
	C10.101,1.452,9.898,1.254,8.798,1.249z M3.938,1.235C3.86,1.233,3.707,1.077,3.723,1.033C3.777,0.897,3.89,0.679,3.99,0.675
	c0.683-0.03,1.371-0.036,2.052,0.009c0.118,0.008,0.212,0.292,0.393,0.561C5.484,1.245,4.71,1.25,3.938,1.235z"/>
</svg>
