<?xml version="1.0" encoding="utf-8"?>
<!-- Generator: Adobe Illustrator 17.0.0, SVG Export Plug-In . SVG Version: 6.00 Build 0)  -->
<!DOCTYPE svg PUBLIC "-//W3C//DTD SVG 1.1//EN" "http://www.w3.org/Graphics/SVG/1.1/DTD/svg11.dtd">
<svg version="1.1" id="Layer_1" xmlns="http://www.w3.org/2000/svg" xmlns:xlink="http://www.w3.org/1999/xlink" x="0px" y="0px"
	 width="12px" height="11px" viewBox="0 0 12 11" enable-background="new 0 0 12 11" xml:space="preserve">
<g>
	<path fill="#676767" d="M7.615,1.526c-0.03,0.038-0.059,0.09-0.102,0.13C6.716,2.394,5.919,3.131,5.122,3.868
		C4.478,4.464,3.834,5.06,3.191,5.657C3.172,5.675,3.153,5.69,3.134,5.703L2.47,6.315h0.003c-0.172,0.159-0.338,0.31-0.499,0.458
		L1.773,6.959C1.637,7.086,1.504,7.212,1.374,7.34C1.256,7.456,1.157,7.604,1.1,7.754C0.91,8.257,0.743,8.766,0.568,9.274
		c-0.165,0.478-0.333,0.954-0.486,1.435c-0.024,0.076-0.007,0.197,0.046,0.252c0.047,0.049,0.17,0.037,0.26,0.047
		c0.025,0.003,0.053-0.015,0.079-0.023c1.039-0.306,2.079-0.608,3.114-0.924c0.168-0.051,0.338-0.145,0.463-0.26
		c2.053-1.888,4.1-3.782,6.147-5.674c0.043-0.039,0.083-0.081,0.114-0.111C9.416,3.192,8.534,2.376,7.615,1.526z M1.817,10.083
		c-0.04,0.011-0.108-0.013-0.141-0.042C1.486,9.874,1.299,9.703,1.12,9.525C1.084,9.489,1.066,9.411,1.081,9.364
		c0.126-0.385,0.262-0.768,0.386-1.126c0.53,0.491,1.068,0.989,1.6,1.482C2.678,9.834,2.249,9.962,1.817,10.083z M7.573,2.798
		C7.544,2.836,7.508,2.869,7.472,2.902C5.869,4.384,4.265,5.866,2.659,7.346C2.592,7.408,2.505,7.452,2.464,7.479
		C2.226,7.476,2.116,7.303,2.205,7.157C2.238,7.105,2.287,7.06,2.334,7.016c1.595-1.475,3.191-2.95,4.787-4.425
		c0.039-0.036,0.08-0.073,0.125-0.103C7.354,2.42,7.462,2.432,7.551,2.515C7.641,2.6,7.645,2.7,7.573,2.798z"/>
	<path fill="#676767" d="M10.799,3.574C9.899,2.742,9.017,1.928,8.1,1.08C8.211,0.988,8.339,0.89,8.458,0.784
		c0.193-0.172,0.378-0.353,0.571-0.526c0.396-0.356,0.779-0.353,1.167,0.006c0.518,0.479,1.037,0.958,1.555,1.438
		c0.281,0.261,0.341,0.586,0.089,0.864C11.516,2.924,11.143,3.245,10.799,3.574z"/>
</g>
</svg>
