<?xml version="1.0" encoding="utf-8"?>
<!-- Generator: Adobe Illustrator 17.0.0, SVG Export Plug-In . SVG Version: 6.00 Build 0)  -->
<!DOCTYPE svg PUBLIC "-//W3C//DTD SVG 1.1//EN" "http://www.w3.org/Graphics/SVG/1.1/DTD/svg11.dtd">
<svg version="1.1" id="Layer_1" xmlns="http://www.w3.org/2000/svg" xmlns:xlink="http://www.w3.org/1999/xlink" x="0px" y="0px"
	 width="20px" height="22px" viewBox="0 0 20 22" enable-background="new 0 0 20 22" xml:space="preserve">
<path fill="#676767" d="M16.875,2.394h-1.488V0.021h-2.813v2.374H7.5V0.021H4.688v2.374H3.125C1.4,2.394,0,3.768,0,5.461v13.493
	c0,1.699,1.4,3.067,3.125,3.067h13.75c1.725,0,3.125-1.368,3.125-3.067V5.461C20,3.768,18.6,2.394,16.875,2.394z M17.813,18.034
	c0,1.018-0.838,1.84-1.875,1.84H4.063c-1.037,0-1.875-0.822-1.875-1.84v-7.2h15.625V18.034z M17.813,8.221H2.188v-1.84
	c0-1.012,0.838-1.84,1.875-1.84h0.625v2.073H7.5V4.541h5.075v2.073h2.813V4.541h0.55c1.037,0,1.875,0.828,1.875,1.84V8.221z"/>
</svg>
