<?xml version="1.0" encoding="utf-8"?>
<!-- Generator: Adobe Illustrator 17.0.0, SVG Export Plug-In . SVG Version: 6.00 Build 0)  -->
<!DOCTYPE svg PUBLIC "-//W3C//DTD SVG 1.1//EN" "http://www.w3.org/Graphics/SVG/1.1/DTD/svg11.dtd">
<svg version="1.1" id="Layer_1" xmlns="http://www.w3.org/2000/svg" xmlns:xlink="http://www.w3.org/1999/xlink" x="0px" y="0px"
	 width="18px" height="18px" viewBox="0 0 18 18" enable-background="new 0 0 18 18" xml:space="preserve">
<path fill="#36465D" d="M8.594,0.083c0.269,0,0.539,0,0.808,0C9.442,0.088,9.48,0.096,9.52,0.098
	c0.539,0.028,1.071,0.102,1.594,0.233c2.377,0.594,4.223,1.921,5.533,3.971c0.731,1.144,1.156,2.399,1.3,3.746
	c0.02,0.19,0.035,0.38,0.053,0.569c0,0.255,0,0.509,0,0.764c-0.006,0.039-0.014,0.077-0.016,0.116
	c-0.036,0.69-0.156,1.366-0.352,2.028c-1.058,3.558-4.268,6.117-7.988,6.369c-1.026,0.069-2.036-0.021-3.026-0.296
	c-2.066-0.573-3.73-1.725-4.968-3.457c-1.264-1.765-1.791-3.741-1.619-5.899C0.1,7.368,0.3,6.52,0.634,5.705
	c0.812-1.98,2.164-3.492,4.05-4.529c1.041-0.574,2.159-0.916,3.345-1.04C8.217,0.116,8.406,0.1,8.594,0.083z M9.012,14.646
	c0.249-0.02,0.51-0.028,0.767-0.063c1.243-0.171,2.325-0.68,3.246-1.525c0.313-0.287,0.593-0.605,0.829-0.957
	c0.191-0.285,0.198-0.585,0.008-0.871c-0.188-0.283-0.466-0.392-0.803-0.335c-0.238,0.04-0.403,0.183-0.54,0.375
	c-1.223,1.705-3.49,2.282-5.392,1.376c-0.691-0.328-1.246-0.814-1.689-1.432c-0.264-0.369-0.746-0.445-1.104-0.19
	c-0.359,0.255-0.442,0.733-0.178,1.096C5.346,13.759,6.973,14.578,9.012,14.646z M6.962,7.309C6.964,6.6,6.39,6.032,5.674,6.032
	c-0.711,0-1.287,0.567-1.288,1.27C4.385,8.011,4.958,8.583,5.671,8.584C6.387,8.586,6.962,8.019,6.962,7.309z M12.314,8.584
	c0.715,0.002,1.294-0.567,1.296-1.272c0.001-0.704-0.571-1.276-1.28-1.28c-0.716-0.004-1.293,0.56-1.298,1.269
	C11.027,8.009,11.599,8.582,12.314,8.584z"/>
</svg>
