<?xml version="1.0" encoding="utf-8"?>
<!-- Generator: Adobe Illustrator 17.0.0, SVG Export Plug-In . SVG Version: 6.00 Build 0)  -->
<!DOCTYPE svg PUBLIC "-//W3C//DTD SVG 1.1//EN" "http://www.w3.org/Graphics/SVG/1.1/DTD/svg11.dtd">
<svg version="1.1" id="Layer_1" xmlns="http://www.w3.org/2000/svg" xmlns:xlink="http://www.w3.org/1999/xlink" x="0px" y="0px"
	 width="15px" height="15px" viewBox="0 0 15 15" enable-background="new 0 0 15 15" xml:space="preserve">
<g>
	<g>
		<path fill="#263238" d="M7.5,0C3.36,0,0,3.36,0,7.5S3.36,15,7.5,15S15,11.64,15,7.5S11.64,0,7.5,0z M7.5,13C4.46,13,2,10.54,2,7.5
			S4.46,2,7.5,2C10.54,2,13,4.46,13,7.5S10.54,13,7.5,13z"/>
		<polygon fill="#263238" points="7.5,11.82 7.5,11.87 7.44,11.87 		"/>
		<path fill="#263238" d="M6.33,5.98c0,0.4-0.56,0.73-1.25,0.73c-0.14,0-0.27-0.01-0.4-0.04C4.19,6.57,3.83,6.3,3.83,5.98
			c0-0.41,0.56-0.73,1.25-0.73c0.67,0,1.22,0.3,1.24,0.7C6.33,5.96,6.33,5.97,6.33,5.98z"/>
	</g>
	<g>
		<path fill="#263238" d="M11.53,8.98c-0.08,1.61-1.83,2.89-3.97,2.89H7.5v-0.05l-0.06,0.05c-2.14,0-3.89-1.28-3.97-2.89h0.99
			c0,1.08,1.34,1.96,3,1.96h0.08c1.66,0,3-0.88,3-1.96H11.53z"/>
		<path fill="#263238" d="M11.17,5.98c0,0.32-0.36,0.59-0.85,0.69c-0.13,0.03-0.26,0.04-0.4,0.04c-0.69,0-1.25-0.33-1.25-0.73
			c0-0.01,0-0.02,0.01-0.03c0.02-0.4,0.57-0.7,1.24-0.7C10.61,5.25,11.17,5.57,11.17,5.98z"/>
	</g>
</g>
</svg>
