<?xml version="1.0" encoding="utf-8"?>
<!-- Generator: Adobe Illustrator 17.0.0, SVG Export Plug-In . SVG Version: 6.00 Build 0)  -->
<!DOCTYPE svg PUBLIC "-//W3C//DTD SVG 1.1//EN" "http://www.w3.org/Graphics/SVG/1.1/DTD/svg11.dtd">
<svg version="1.1" id="Layer_1" xmlns="http://www.w3.org/2000/svg" xmlns:xlink="http://www.w3.org/1999/xlink" x="0px" y="0px"
	 width="11px" height="12px" viewBox="0 0 11 12" enable-background="new 0 0 11 12" xml:space="preserve">
<path fill="#66686C" d="M11.003,8.12c0,0.261-0.071,0.407-0.304,0.532C9.607,9.227,8.484,9.404,7.3,8.955
	C6.562,8.674,5.834,8.361,5.116,8.037C3.831,7.442,2.597,7.609,1.383,8.256C1.312,8.288,1.252,8.319,1.13,8.371
	c0,1.002,0,2.004,0.01,2.996c0,0.313-0.071,0.511-0.405,0.585H0.402c-0.334-0.073-0.405-0.271-0.405-0.585
	c0.02-3.59,0.02-7.192,0-10.782c0-0.313,0.071-0.511,0.405-0.585h0.334C1.049,0.073,1.14,0.251,1.14,0.564v0.324
	c0.03-0.136,0.111-0.23,0.273-0.313c1.092-0.563,2.215-0.772,3.389-0.323C5.53,0.522,6.259,0.814,6.967,1.148
	C8.261,1.764,9.506,1.607,10.73,0.95c0.071-0.031,0.132-0.073,0.202-0.104c0,0,0.02,0.01,0.061,0.021V1.18
	C10.993,3.497,10.993,5.803,11.003,8.12z"/>
</svg>
