<?xml version="1.0" encoding="utf-8"?>
<!-- Generator: Adobe Illustrator 17.0.0, SVG Export Plug-In . SVG Version: 6.00 Build 0)  -->
<!DOCTYPE svg PUBLIC "-//W3C//DTD SVG 1.1//EN" "http://www.w3.org/Graphics/SVG/1.1/DTD/svg11.dtd">
<svg version="1.1" id="Layer_1" xmlns="http://www.w3.org/2000/svg" xmlns:xlink="http://www.w3.org/1999/xlink" x="0px" y="0px"
	 width="25.82px" height="19.88px" viewBox="0 0 25.82 19.88" enable-background="new 0 0 25.82 19.88" xml:space="preserve">
<g>
	<g>
		<path fill="#FFFFFF" d="M23.757,5.039c0,2.467-1.974,4.47-4.426,4.514V8.11c1.649-0.044,2.975-1.399,2.975-3.071
			c0-1.664-1.325-3.019-2.975-3.063v-1.45C21.784,0.569,23.757,2.572,23.757,5.039z"/>
		<path fill="#FFFFFF" d="M25.819,14.443c0,1.37-1.384,2.577-3.513,3.306v-2.033c0.965-0.346,1.554-0.788,1.554-1.274
			c0-0.582-0.847-1.105-2.187-1.458v-2.039C24.155,11.638,25.819,12.948,25.819,14.443z"/>
	</g>
	<g>
		<path fill="#FFFFFF" d="M17.468,2.528c-0.258-0.412-0.567-0.788-0.928-1.112c-0.957-0.876-2.231-1.413-3.63-1.413
			S10.237,0.54,9.28,1.417c-0.361,0.324-0.67,0.699-0.928,1.112C7.829,3.354,7.527,4.333,7.527,5.386
			c0,0.84,0.192,1.642,0.545,2.349c0.206,0.434,0.471,0.84,0.795,1.2c0.986,1.127,2.43,1.834,4.043,1.834s3.056-0.707,4.043-1.834
			c0.324-0.361,0.589-0.766,0.795-1.2c0.354-0.707,0.545-1.51,0.545-2.349C18.293,4.333,17.991,3.353,17.468,2.528z M16.445,6.321
			c-0.14,0.552-0.412,1.053-0.788,1.473c-0.663,0.766-1.649,1.252-2.747,1.252s-2.084-0.486-2.747-1.252
			c-0.375-0.42-0.648-0.921-0.788-1.473C9.294,6.027,9.25,5.71,9.25,5.386c0-0.464,0.088-0.906,0.243-1.311
			c0.206-0.537,0.53-1.009,0.95-1.384c0.648-0.596,1.517-0.965,2.467-0.965s1.819,0.368,2.467,0.965
			c0.42,0.376,0.744,0.847,0.95,1.384c0.155,0.405,0.243,0.847,0.243,1.311C16.57,5.71,16.526,6.027,16.445,6.321z"/>
		<path fill="#FFFFFF" d="M17.667,12.514c-1.34-0.464-2.99-0.736-4.757-0.736c-1.767,0-3.417,0.272-4.757,0.736
			c-2.136,0.729-3.527,1.944-3.527,3.314c0,0.067,0,0.132,0.007,0.199c0.096,0.891,0.781,1.716,1.871,2.371
			c1.517,0.898,3.829,1.48,6.407,1.48s4.89-0.582,6.407-1.48c1.09-0.656,1.775-1.48,1.871-2.371
			c0.007-0.067,0.007-0.132,0.007-0.199C21.195,14.458,19.803,13.243,17.667,12.514z M19.022,16.329
			c-0.722,0.825-3.189,1.429-6.112,1.429s-5.391-0.604-6.112-1.429c-0.14-0.162-0.214-0.324-0.214-0.501
			c0-1.068,2.835-1.937,6.326-1.937s6.325,0.869,6.325,1.937C19.235,16.004,19.162,16.166,19.022,16.329z"/>
		<path fill="#FFFFFF" d="M2.063,5.039c0,2.467,1.974,4.47,4.426,4.514V8.11c-1.649-0.044-2.975-1.399-2.975-3.07
			c0-1.664,1.325-3.019,2.975-3.063v-1.45C4.036,0.569,2.063,2.572,2.063,5.039z"/>
		<path fill="#FFFFFF" d="M0.001,14.443c0,1.37,1.384,2.577,3.513,3.306v-2.033C2.549,15.37,1.96,14.929,1.96,14.443
			c0-0.582,0.847-1.105,2.187-1.458v-2.039C1.665,11.638,0.001,12.948,0.001,14.443z"/>
	</g>
</g>
</svg>
