<?xml version="1.0" encoding="utf-8"?>
<!-- Generator: Adobe Illustrator 17.0.0, SVG Export Plug-In . SVG Version: 6.00 Build 0)  -->
<!DOCTYPE svg PUBLIC "-//W3C//DTD SVG 1.1//EN" "http://www.w3.org/Graphics/SVG/1.1/DTD/svg11.dtd">
<svg version="1.1" id="Layer_1" xmlns="http://www.w3.org/2000/svg" xmlns:xlink="http://www.w3.org/1999/xlink" x="0px" y="0px"
	 width="148px" height="43px" viewBox="0 0 148 43" enable-background="new 0 0 148 43" xml:space="preserve">
<g>
	<path fill="#020202" d="M73.859,43c-22.766,0-45.532,0.002-68.298-0.002c-3.047,0-4.869-1.24-5.429-3.698
		c-0.108-0.472-0.126-0.974-0.127-1.462C-0.001,26.957-0.001,16.076,0.001,5.194C0.002,2,1.839,0.096,4.998,0.005
		c0.31-0.009,0.621-0.002,0.932-0.002c45.355,0,90.709,0,136.064,0c0.399,0,0.799-0.005,1.198,0.015
		c2.847,0.136,4.771,2.008,4.781,4.878c0.038,11.06,0.036,22.121,0.001,33.182c-0.009,2.873-1.921,4.764-4.752,4.906
		c-0.487,0.024-0.976,0.017-1.464,0.017C119.125,43,96.492,43,73.859,43z M10.123,21.233c-0.014,4.18-0.031,8.359-0.037,12.539
		c-0.001,0.582,0.085,1.156,0.503,1.614c0.764,0.837,1.597,0.563,2.408,0.116c1.196-0.66,2.31-1.48,3.497-2.129
		c4.281-2.34,8.538-4.721,12.74-7.203c1.802-1.012,3.63-1.981,5.4-3.048c1.614-0.973,1.585-2.304-0.061-3.3
		c-1.744-1.054-3.537-2.025-5.309-3.032c-1.547-0.899-3.09-1.804-4.642-2.695c-3.819-2.192-7.636-4.387-11.467-6.558
		c-0.851-0.482-1.759-0.946-2.564,0.122c-0.441,0.381-0.501,0.909-0.502,1.437c-0.002,1.448,0.021,2.897,0.035,4.345
		C10.123,16.038,10.123,18.636,10.123,21.233z M55.479,24.846c-0.709,0-1.42,0.028-2.128-0.007c-0.818-0.04-1.405-0.051-1.387,1.136
		c0.017,1.125,0.573,1.087,1.333,1.055c0.708-0.03,1.418-0.008,2.128-0.006c1.424,0.004,1.585,0.302,0.877,1.613
		c-1.533,2.836-6.03,3.068-8.213,0.423c-1.7-2.06-1.673-4.964,0.066-7.009c1.669-1.963,4.5-2.437,6.711-0.898
		c1.098,0.764,1.441-0.055,1.877-0.591c0.657-0.807-0.332-0.952-0.691-1.184c-2.642-1.712-5.378-1.687-7.996-0.034
		c-2.743,1.733-3.846,4.341-3.362,7.578c0.54,3.615,3.991,6.255,7.908,6.097c3.534-0.142,5.982-2.597,6.313-6.329
		c0.162-1.832,0.151-1.844-1.707-1.844C56.631,24.846,56.055,24.846,55.479,24.846z M87.268,32.144
		c0.112,1.393-0.15,2.48-1.344,2.971c-1.238,0.509-2.347,0.198-3.148-0.959c-0.658-0.95-1.271-0.064-1.792,0.15
		c-0.693,0.284-0.057,0.744,0.136,1.039c1.076,1.64,3.015,2.312,5.027,1.792c1.995-0.516,3.108-1.879,3.215-4.365
		c0.119-2.768,0.026-5.546,0.052-8.319c0.006-0.58-0.212-0.917-0.76-0.748c-1.224,0.376-2.359,0.142-3.521-0.26
		c-0.344-0.119-0.795-0.016-1.175,0.077c-1.89,0.464-3.125,1.662-3.564,3.565c-0.462,2.003,0.097,3.737,1.743,4.998
		C83.752,33.324,85.462,33.38,87.268,32.144z M107.013,25.802c0,2.009,0.02,4.019-0.012,6.028c-0.01,0.648,0.112,0.902,0.851,0.954
		c1.121,0.078,1.524-0.295,1.355-1.4c-0.06-0.393-0.01-0.802-0.01-1.204c0-2.741,0-2.741,2.733-2.763
		c2.69-0.022,4.632-1.78,4.678-4.233c0.048-2.577-1.808-4.434-4.55-4.509c-1.371-0.037-2.745,0.037-4.115-0.024
		c-0.777-0.035-0.964,0.246-0.947,0.988C107.044,21.693,107.013,23.748,107.013,25.802z M126.983,27.111
		c-1.411-0.532-2.774-0.595-4.119,0.008c-1.247,0.559-1.99,1.471-1.954,2.897c0.033,1.324,0.906,2.364,2.28,2.801
		c1.123,0.357,2.178,0.247,3.177-0.4c0.237-0.154,0.422-0.746,0.759,0.072c0.252,0.611,1.127,0.272,1.692,0.211
		c0.551-0.06,0.287-0.656,0.296-1.007c0.033-1.341-0.026-2.685,0.023-4.026c0.064-1.731-0.513-3.097-2.124-3.818
		c-1.691-0.758-3.369-0.685-4.894,0.473c-0.428,0.325-1.158,0.868-0.692,1.3c0.406,0.376,1.11,1.114,2.035,0.3
		C124.751,24.785,126.499,25.395,126.983,27.111z M69.948,28.176c-0.011,2.808,1.962,4.831,4.722,4.843
		c2.724,0.012,4.808-2.08,4.796-4.817c-0.012-2.68-2.044-4.746-4.703-4.783C72.016,23.381,69.959,25.414,69.948,28.176z
		 M64.372,33.018c2.696-0.001,4.836-2.171,4.787-4.856c-0.048-2.651-2.136-4.725-4.773-4.741c-2.735-0.017-4.814,2.05-4.821,4.793
		C59.559,30.954,61.624,33.018,64.372,33.018z M96.318,29.69c1.874-0.781,3.657-1.562,5.471-2.263
		c0.738-0.286,0.793-0.623,0.457-1.281c-0.592-1.157-1.371-2.078-2.627-2.509c-2.001-0.686-4.206,0.202-5.222,2.099
		c-1.142,2.134-0.616,4.927,1.19,6.314c1.87,1.436,4.567,1.304,6.201-0.353c0.252-0.255,1.105-0.571,0.309-1.074
		c-0.471-0.298-0.825-1.26-1.735-0.381C99.015,31.542,97.577,31.319,96.318,29.69z M129.239,23.834
		c0.654,1.503,1.158,3.086,1.985,4.473c1.543,2.587,1.804,5.068,0.016,7.612c-0.1,0.143-0.161,0.316-0.229,0.48
		c-0.118,0.283-0.132,0.56,0.266,0.554c0.873-0.012,1.741,0.272,2.236-1.004c1.22-3.148,2.644-6.215,3.966-9.323
		c0.401-0.944,0.95-1.839,1.134-2.895c-2.257-0.095-2.258-0.096-3.017,1.846c-0.509,1.303-1.013,2.609-1.617,4.166
		c-0.661-1.617-1.347-2.967-1.76-4.397C131.762,23.755,130.858,23.344,129.239,23.834z M117.671,25.66
		c0,2.052,0.056,4.105-0.024,6.154c-0.038,0.969,0.443,0.931,1.118,0.946c0.719,0.016,1.115-0.046,1.103-0.973
		c-0.053-4.058-0.055-8.117,0.001-12.175c0.013-0.968-0.458-0.932-1.131-0.949c-0.72-0.018-1.129,0.045-1.091,0.977
		C117.726,21.644,117.671,23.653,117.671,25.66z M90.721,25.807c0,2.01,0.037,4.022-0.018,6.03c-0.022,0.819,0.314,0.97,1.012,0.926
		c0.626-0.039,1.189,0.109,1.175-0.914c-0.056-4.064-0.052-8.13-0.001-12.195c0.011-0.907-0.357-1.004-1.095-1.008
		c-0.737-0.004-1.127,0.082-1.096,0.997C90.77,21.695,90.721,23.752,90.721,25.807z M50.752,11.009
		c-0.492,1.598-1.709,2.275-3.04,1.78c-1.425-0.53-2.072-2.1-1.442-3.498c0.628-1.394,2.099-1.924,3.414-1.207
		c0.403,0.22,0.81,0.735,1.147,0.014c0.301-0.644-0.354-0.822-0.714-0.998c-1.342-0.657-2.661-0.534-3.858,0.377
		c-1.239,0.943-1.482,2.294-1.254,3.722c0.288,1.799,2.183,3.027,4.102,2.759c1.613-0.225,2.844-1.659,2.785-3.214
		c-0.016-0.432-0.007-0.806-0.601-0.79C50.495,9.975,49.697,9.97,48.9,9.955c-0.451-0.008-0.468,0.268-0.476,0.609
		c-0.008,0.357,0.155,0.457,0.479,0.449C49.508,10.998,50.114,11.009,50.752,11.009z M87.055,11.721
		c-1.042-1.687-1.871-3.001-2.668-4.335c-0.3-0.501-0.714-0.65-1.23-0.524c-0.583,0.142-0.348,0.651-0.353,1.007
		c-0.023,1.61-0.028,3.222,0.002,4.832c0.008,0.41-0.305,1.078,0.561,1.058c0.789-0.018,0.453-0.634,0.465-0.989
		c0.04-1.261,0.016-2.524,0.016-4.175c1.114,1.792,2.014,3.209,2.877,4.647C87,13.7,87.36,13.85,87.834,13.738
		c0.525-0.124,0.299-0.58,0.303-0.889c0.022-1.745,0.015-3.49,0.006-5.235c-0.002-0.332,0.111-0.753-0.459-0.776
		c-0.564-0.023-0.642,0.297-0.635,0.765C87.067,8.842,87.055,10.081,87.055,11.721z M74.794,10.3
		c-0.014,2.159,1.416,3.662,3.487,3.666c2.042,0.004,3.589-1.572,3.578-3.644c-0.011-2.016-1.52-3.568-3.491-3.589
		C76.254,6.709,74.808,8.153,74.794,10.3z M52.682,10.32c0,0.894,0.007,1.788-0.003,2.682c-0.005,0.426-0.021,0.804,0.589,0.788
		c1.018-0.026,2.038-0.008,3.057-0.006c0.357,0.001,0.601-0.104,0.583-0.53c-0.017-0.409-0.263-0.53-0.613-0.533
		c-0.532-0.004-1.069-0.052-1.594,0.007c-0.776,0.088-0.947-0.234-0.959-0.973c-0.012-0.779,0.25-0.919,0.971-0.966
		c0.624-0.041,1.798,0.593,1.798-0.523c0-1.015-1.138-0.414-1.748-0.471c-0.66-0.061-1.021-0.086-1.026-0.928
		c-0.005-0.861,0.374-0.948,1.037-0.895c0.44,0.036,0.886,0.005,1.329,0.007c0.423,0.002,0.823-0.022,0.804-0.613
		c-0.019-0.605-0.458-0.535-0.855-0.563c-3.37-0.238-3.37-0.24-3.37,3.114C52.682,10.052,52.682,10.186,52.682,10.32z
		 M59.386,10.827c0,0.758,0.014,1.517-0.006,2.275c-0.011,0.418,0.079,0.67,0.563,0.689c0.547,0.021,0.667-0.242,0.658-0.732
		c-0.023-1.204,0.038-2.411-0.021-3.613c-0.047-0.957-0.007-1.706,1.266-1.477c0.349,0.063,0.588-0.114,0.608-0.518
		c0.022-0.454-0.183-0.648-0.627-0.646c-1.194,0.007-2.387,0.003-3.581,0.002c-0.384,0-0.709,0.062-0.723,0.56
		c-0.013,0.479,0.272,0.674,0.668,0.6c1.215-0.226,1.267,0.499,1.2,1.388C59.356,9.843,59.386,10.336,59.386,10.827z M69.854,6.806
		c-0.531,0-1.061-0.008-1.592,0.003c-0.385,0.008-0.846-0.081-0.88,0.528c-0.039,0.695,0.465,0.694,0.9,0.631
		c0.913-0.132,0.995,0.355,0.97,1.09c-0.045,1.337,0.005,2.677-0.021,4.015c-0.01,0.509,0.144,0.733,0.671,0.718
		c0.501-0.014,0.555-0.298,0.551-0.701c-0.012-1.205,0.025-2.41-0.014-3.614c-0.029-0.904-0.091-1.741,1.232-1.507
		c0.427,0.076,0.655-0.162,0.639-0.623c-0.018-0.506-0.349-0.545-0.731-0.542C71.004,6.81,70.429,6.806,69.854,6.806z
		 M65.484,10.122c0,0.978,0.003,1.955-0.002,2.933C65.48,13.426,65.47,13.749,66,13.771c0.535,0.022,0.542-0.279,0.541-0.667
		c-0.008-1.866-0.006-3.732-0.001-5.598c0.001-0.391-0.028-0.707-0.554-0.666c-0.512,0.039-0.507,0.376-0.503,0.75
		C65.488,8.433,65.484,9.278,65.484,10.122z"/>
	<path fill="#F3F3F3" d="M55.479,24.846c0.576,0,1.153,0,1.729,0c1.858,0,1.869,0.012,1.707,1.844
		c-0.33,3.732-2.779,6.187-6.313,6.329c-3.917,0.158-7.368-2.483-7.908-6.097c-0.483-3.237,0.619-5.845,3.362-7.578
		c2.618-1.654,5.354-1.678,7.996,0.034c0.359,0.233,1.348,0.377,0.691,1.184c-0.436,0.536-0.779,1.355-1.877,0.591
		c-2.211-1.539-5.042-1.065-6.711,0.898c-1.739,2.045-1.767,4.949-0.066,7.009c2.183,2.645,6.68,2.413,8.213-0.423
		c0.709-1.311,0.547-1.609-0.877-1.613c-0.709-0.002-1.42-0.024-2.128,0.006c-0.759,0.033-1.316,0.071-1.333-1.055
		c-0.018-1.188,0.569-1.177,1.387-1.136C54.059,24.874,54.769,24.846,55.479,24.846z"/>
	<path fill="#63BE6B" d="M10.591,7.658c0.805-1.068,1.713-0.604,2.564-0.122c3.831,2.171,7.648,4.366,11.467,6.558
		c1.552,0.891,3.095,1.796,4.642,2.695c-1.539,1.572-3.079,3.144-4.618,4.715c-0.111,0.003-0.222,0.006-0.333,0.009
		C19.738,16.896,15.165,12.277,10.591,7.658z"/>
	<path fill="#EF374C" d="M24.312,21.514c0.111-0.003,0.222-0.006,0.333-0.009c1.53,1.555,3.059,3.11,4.588,4.665
		c-4.202,2.482-8.458,4.863-12.74,7.203c-1.187,0.649-2.301,1.469-3.497,2.129c-0.811,0.447-1.644,0.721-2.41-0.116
		c2.343-2.377,4.689-4.753,7.034-7.13c1.248-1.218,2.577-2.355,3.681-3.718C22.39,23.616,23.374,22.588,24.312,21.514z"/>
	<path fill="#F3F3F3" d="M87.268,32.144c-1.807,1.236-3.516,1.18-5.132-0.059c-1.646-1.262-2.205-2.995-1.743-4.998
		c0.439-1.904,1.675-3.101,3.564-3.565c0.38-0.093,0.831-0.196,1.175-0.077c1.162,0.402,2.297,0.636,3.521,0.26
		c0.548-0.168,0.766,0.168,0.76,0.748c-0.027,2.773,0.066,5.55-0.052,8.319c-0.107,2.486-1.219,3.849-3.215,4.365
		c-2.012,0.52-3.951-0.152-5.027-1.792c-0.193-0.295-0.83-0.755-0.136-1.039c0.521-0.214,1.134-1.1,1.792-0.15
		c0.801,1.157,1.91,1.468,3.148,0.959C87.119,34.623,87.381,33.537,87.268,32.144z M87.433,28.289
		c0.02-1.679-1.018-2.895-2.458-2.879c-1.446,0.015-2.572,1.25-2.576,2.826c-0.004,1.55,1.161,2.826,2.587,2.832
		C86.345,31.074,87.415,29.859,87.433,28.289z"/>
	<path fill="#30C5F4" d="M24.312,21.514c-0.939,1.074-1.922,2.102-3.011,3.024c-0.093-0.15-0.163-0.324-0.284-0.446
		c-3.366-3.408-6.738-6.811-10.107-10.216c-0.222-0.224-0.449-0.432-0.788-0.436c-0.013-1.448-0.037-2.897-0.035-4.345
		c0.001-0.528,0.061-1.055,0.502-1.437C15.165,12.277,19.738,16.896,24.312,21.514z"/>
	<path fill="#47C7EF" d="M10.123,13.44c0.34,0.003,0.566,0.211,0.788,0.436c3.369,3.405,6.741,6.808,10.107,10.216
		c0.121,0.122,0.19,0.296,0.284,0.446c-1.104,1.363-2.433,2.5-3.681,3.718c-2.253-1.86-4.134-4.108-6.248-6.114
		c-0.374-0.355-0.645-0.872-1.25-0.91C10.123,18.636,10.123,16.038,10.123,13.44z"/>
	<path fill="#F5F6F6" d="M107.013,25.802c0-2.054,0.03-4.109-0.016-6.162c-0.017-0.742,0.17-1.022,0.947-0.988
		c1.369,0.061,2.744-0.014,4.115,0.024c2.742,0.074,4.598,1.931,4.55,4.509c-0.046,2.453-1.988,4.211-4.678,4.233
		c-2.733,0.022-2.733,0.022-2.733,2.763c0,0.402-0.05,0.812,0.01,1.204c0.169,1.105-0.234,1.478-1.355,1.4
		c-0.739-0.052-0.861-0.306-0.851-0.954C107.034,29.821,107.013,27.811,107.013,25.802z M109.195,22.965c0,2.46,0,2.462,2.429,2.424
		c0.308-0.005,0.623-0.001,0.922-0.063c1.195-0.244,1.841-1.025,1.914-2.223c0.085-1.386-1.011-2.37-2.581-2.407
		C109.195,20.634,109.195,20.634,109.195,22.965z"/>
	<path fill="#FAC411" d="M29.233,26.17c-1.529-1.555-3.059-3.11-4.588-4.665c1.539-1.572,3.078-3.143,4.618-4.715
		c1.772,1.007,3.565,1.978,5.309,3.032c1.647,0.996,1.675,2.327,0.061,3.3C32.864,24.189,31.036,25.158,29.233,26.17z"/>
	<path fill="#54C8E9" d="M10.123,21.233c0.606,0.037,0.876,0.554,1.25,0.91c2.113,2.006,3.994,4.253,6.248,6.114
		c-2.345,2.377-4.691,4.753-7.034,7.13c-0.415-0.459-0.502-1.032-0.501-1.614C10.092,29.593,10.109,25.413,10.123,21.233z"/>
	<path fill="#F5F6F6" d="M126.983,27.111c-0.484-1.716-2.232-2.327-3.523-1.191c-0.924,0.814-1.628,0.076-2.035-0.3
		c-0.466-0.431,0.264-0.975,0.692-1.3c1.526-1.158,3.203-1.23,4.894-0.473c1.611,0.722,2.187,2.088,2.124,3.818
		c-0.049,1.34,0.01,2.684-0.023,4.026c-0.009,0.351,0.255,0.948-0.296,1.007c-0.564,0.061-1.44,0.4-1.692-0.211
		c-0.337-0.818-0.522-0.225-0.759-0.072c-0.999,0.647-2.054,0.757-3.177,0.4c-1.374-0.437-2.247-1.477-2.28-2.801
		c-0.036-1.426,0.707-2.338,1.954-2.897C124.208,26.516,125.572,26.579,126.983,27.111z M125.355,28.49
		c-1.416,0.003-2.382,0.608-2.295,1.432c0.097,0.914,0.813,1.079,1.557,1.108c1.046,0.041,2.455-0.968,2.323-1.775
		C126.787,28.325,125.889,28.589,125.355,28.49z"/>
	<path fill="#F3F3F3" d="M69.948,28.176c0.011-2.762,2.068-4.795,4.814-4.757c2.659,0.037,4.691,2.104,4.703,4.783
		c0.012,2.736-2.071,4.829-4.796,4.817C71.91,33.007,69.937,30.983,69.948,28.176z M72.094,28.291
		c0.022,1.538,1.22,2.814,2.619,2.791c1.405-0.024,2.586-1.325,2.59-2.855c0.005-1.613-1.203-2.863-2.719-2.814
		C73.12,25.459,72.07,26.673,72.094,28.291z"/>
	<path fill="#F5F6F6" d="M64.372,33.018c-2.748,0.001-4.813-2.063-4.806-4.804c0.007-2.743,2.086-4.81,4.821-4.793
		c2.638,0.016,4.725,2.09,4.773,4.741C69.208,30.847,67.069,33.017,64.372,33.018z M64.411,25.406
		c-1.48-0.036-2.63,1.138-2.665,2.721c-0.036,1.589,1.037,2.867,2.468,2.941c1.47,0.076,2.745-1.219,2.769-2.811
		C67.005,26.716,65.855,25.441,64.411,25.406z"/>
	<path fill="#F3F3F3" d="M96.318,29.69c1.259,1.629,2.698,1.852,4.045,0.552c0.91-0.879,1.263,0.084,1.735,0.381
		c0.796,0.503-0.057,0.819-0.309,1.074c-1.634,1.657-4.332,1.789-6.201,0.353c-1.806-1.387-2.333-4.18-1.19-6.314
		c1.016-1.898,3.22-2.785,5.222-2.099c1.255,0.43,2.034,1.351,2.627,2.509c0.337,0.658,0.282,0.995-0.457,1.281
		C99.975,28.128,98.192,28.908,96.318,29.69z M100.049,26.282c-0.7-0.862-1.421-1.134-2.324-0.81
		c-1.1,0.394-1.677,1.176-1.774,2.517C97.344,27.408,98.625,26.875,100.049,26.282z"/>
	<path fill="#F3F3F3" d="M129.239,23.834c1.62-0.491,2.523-0.079,2.981,1.511c0.413,1.43,1.099,2.78,1.76,4.397
		c0.604-1.557,1.108-2.863,1.617-4.166c0.759-1.942,0.76-1.941,3.017-1.846c-0.184,1.056-0.733,1.952-1.134,2.895
		c-1.322,3.108-2.746,6.175-3.966,9.323c-0.494,1.276-1.362,0.992-2.236,1.004c-0.398,0.005-0.384-0.271-0.266-0.554
		c0.068-0.164,0.129-0.337,0.229-0.48c1.788-2.544,1.527-5.025-0.016-7.612C130.397,26.92,129.892,25.337,129.239,23.834z"/>
	<path fill="#FFFFFF" d="M117.671,25.66c0-2.007,0.055-4.016-0.025-6.02c-0.037-0.932,0.372-0.996,1.091-0.977
		c0.673,0.017,1.144-0.019,1.131,0.949c-0.056,4.058-0.054,8.117-0.001,12.175c0.012,0.927-0.384,0.989-1.103,0.973
		c-0.676-0.015-1.156,0.023-1.118-0.946C117.727,29.765,117.671,27.711,117.671,25.66z"/>
	<path fill="#F3F3F3" d="M90.721,25.807c0-2.055,0.049-4.112-0.022-6.164c-0.032-0.914,0.359-1,1.096-0.997
		c0.737,0.004,1.106,0.101,1.095,1.008c-0.051,4.065-0.056,8.131,0.001,12.195c0.014,1.023-0.548,0.875-1.175,0.914
		c-0.698,0.044-1.034-0.107-1.012-0.926C90.758,29.828,90.721,27.817,90.721,25.807z"/>
	<path fill="#EFEEEE" d="M50.752,11.009c-0.638,0-1.243-0.01-1.849,0.004c-0.324,0.008-0.488-0.092-0.479-0.449
		c0.008-0.34,0.025-0.617,0.476-0.609c0.797,0.015,1.594,0.02,2.391-0.002c0.594-0.016,0.585,0.358,0.601,0.79
		c0.058,1.556-1.172,2.99-2.785,3.214c-1.919,0.268-3.814-0.96-4.102-2.759C44.777,9.77,45.02,8.42,46.259,7.477
		c1.197-0.911,2.516-1.034,3.858-0.377c0.36,0.176,1.016,0.354,0.714,0.998c-0.337,0.721-0.745,0.206-1.147-0.014
		c-1.316-0.718-2.786-0.187-3.414,1.207c-0.63,1.398,0.017,2.968,1.442,3.498C49.042,13.284,50.26,12.607,50.752,11.009z"/>
	<path fill="#EFEEEE" d="M87.055,11.721c0-1.64,0.012-2.879-0.006-4.117c-0.007-0.468,0.07-0.788,0.635-0.765
		c0.571,0.023,0.457,0.443,0.459,0.776c0.009,1.745,0.016,3.49-0.006,5.235c-0.004,0.308,0.221,0.765-0.303,0.889
		C87.36,13.85,87,13.7,86.725,13.242c-0.864-1.439-1.764-2.855-2.877-4.647c0,1.651,0.024,2.914-0.016,4.175
		c-0.011,0.356,0.325,0.971-0.465,0.989c-0.866,0.02-0.553-0.648-0.561-1.058c-0.03-1.61-0.025-3.221-0.002-4.832
		c0.005-0.356-0.23-0.864,0.353-1.007c0.516-0.126,0.93,0.022,1.23,0.524C85.184,8.72,86.013,10.034,87.055,11.721z"/>
	<path fill="#EFEEEE" d="M74.794,10.3c0.014-2.147,1.46-3.591,3.574-3.567c1.971,0.022,3.48,1.574,3.491,3.589
		c0.011,2.072-1.536,3.648-3.578,3.644C76.21,13.962,74.78,12.458,74.794,10.3z M80.69,10.333c-0.001-1.524-1-2.568-2.439-2.548
		c-1.311,0.018-2.372,1.121-2.404,2.5c-0.033,1.423,1.065,2.615,2.423,2.63C79.668,12.931,80.691,11.839,80.69,10.333z"/>
	<path fill="#D0D1D1" d="M52.682,10.32c0-0.134,0-0.268,0-0.402c0-3.353,0-3.352,3.37-3.114c0.397,0.028,0.836-0.041,0.855,0.563
		c0.018,0.591-0.381,0.615-0.804,0.613c-0.443-0.002-0.888,0.029-1.329-0.007c-0.663-0.054-1.042,0.034-1.037,0.895
		c0.005,0.842,0.366,0.866,1.026,0.928c0.61,0.057,1.748-0.544,1.748,0.471c0,1.116-1.174,0.482-1.798,0.523
		c-0.72,0.048-0.983,0.187-0.971,0.966c0.012,0.739,0.183,1.061,0.959,0.973c0.525-0.06,1.062-0.012,1.594-0.007
		c0.35,0.003,0.596,0.124,0.613,0.533c0.017,0.426-0.226,0.531-0.583,0.53c-1.019-0.003-2.038-0.021-3.057,0.006
		c-0.609,0.016-0.593-0.362-0.589-0.788C52.689,12.108,52.682,11.214,52.682,10.32z"/>
	<path fill="#D0D1D1" d="M59.386,10.827c0-0.491-0.03-0.984,0.006-1.472c0.066-0.889,0.014-1.615-1.2-1.388
		c-0.397,0.074-0.681-0.121-0.668-0.6c0.014-0.498,0.338-0.56,0.723-0.56c1.194,0.001,2.388,0.006,3.581-0.002
		c0.444-0.003,0.649,0.191,0.627,0.646c-0.02,0.405-0.259,0.581-0.608,0.518c-1.273-0.229-1.314,0.52-1.266,1.477
		c0.059,1.202-0.001,2.409,0.021,3.613c0.009,0.49-0.111,0.753-0.658,0.732c-0.484-0.019-0.574-0.271-0.563-0.689
		C59.4,12.344,59.386,11.585,59.386,10.827z"/>
	<path fill="#D0D1D1" d="M69.854,6.806c0.575,0,1.15,0.004,1.724-0.001c0.382-0.003,0.713,0.036,0.731,0.542
		c0.016,0.461-0.212,0.698-0.639,0.623c-1.323-0.234-1.261,0.603-1.232,1.507c0.039,1.203,0.002,2.409,0.014,3.614
		c0.004,0.403-0.05,0.687-0.551,0.701c-0.527,0.015-0.681-0.209-0.671-0.718c0.027-1.338-0.023-2.678,0.021-4.015
		c0.025-0.736-0.057-1.222-0.97-1.09c-0.435,0.063-0.939,0.064-0.9-0.631c0.034-0.609,0.494-0.52,0.88-0.528
		C68.793,6.798,69.323,6.806,69.854,6.806z"/>
	<path fill="#EFEEEE" d="M65.484,10.122c0-0.844,0.005-1.688-0.002-2.533c-0.003-0.374-0.009-0.711,0.503-0.75
		c0.527-0.041,0.556,0.276,0.554,0.666c-0.005,1.866-0.007,3.732,0.001,5.598c0.002,0.389-0.005,0.69-0.541,0.667
		c-0.529-0.022-0.519-0.345-0.517-0.717C65.487,12.077,65.484,11.099,65.484,10.122z"/>
	<path fill="#070707" d="M87.433,28.289c-0.019,1.571-1.088,2.785-2.447,2.779c-1.426-0.007-2.591-1.282-2.587-2.832
		c0.004-1.576,1.13-2.811,2.576-2.826C86.415,25.394,87.453,26.61,87.433,28.289z"/>
	<path fill="#070707" d="M109.195,22.965c0-2.331,0-2.331,2.683-2.268c1.571,0.037,2.666,1.021,2.581,2.407
		c-0.073,1.198-0.719,1.979-1.914,2.223c-0.299,0.061-0.614,0.058-0.922,0.063C109.195,25.427,109.195,25.425,109.195,22.965z"/>
	<path fill="#070707" d="M125.355,28.49c0.534,0.1,1.432-0.164,1.585,0.765c0.132,0.807-1.276,1.816-2.323,1.775
		c-0.744-0.029-1.46-0.194-1.557-1.108C122.973,29.098,123.939,28.493,125.355,28.49z"/>
	<path fill="#020202" d="M72.094,28.291c-0.023-1.618,1.026-2.832,2.49-2.879c1.516-0.049,2.724,1.202,2.719,2.814
		c-0.005,1.53-1.185,2.831-2.59,2.855C73.314,31.106,72.116,29.83,72.094,28.291z"/>
	<path fill="#070707" d="M64.411,25.406c1.444,0.035,2.594,1.31,2.571,2.851c-0.024,1.592-1.299,2.887-2.769,2.811
		c-1.431-0.074-2.504-1.352-2.468-2.941C61.782,26.544,62.931,25.37,64.411,25.406z"/>
	<path fill="#070707" d="M100.049,26.282c-1.424,0.593-2.704,1.126-4.098,1.707c0.097-1.341,0.674-2.123,1.774-2.517
		C98.628,25.148,99.348,25.42,100.049,26.282z"/>
	<path fill="#070707" d="M80.69,10.333c0.001,1.506-1.022,2.598-2.419,2.582c-1.359-0.016-2.456-1.207-2.423-2.63
		c0.032-1.378,1.092-2.481,2.404-2.5C79.69,7.765,80.689,8.809,80.69,10.333z"/>
</g>
</svg>
