<?xml version="1.0" encoding="utf-8"?>
<!-- Generator: Adobe Illustrator 17.0.0, SVG Export Plug-In . SVG Version: 6.00 Build 0)  -->
<!DOCTYPE svg PUBLIC "-//W3C//DTD SVG 1.1//EN" "http://www.w3.org/Graphics/SVG/1.1/DTD/svg11.dtd">
<svg version="1.1" id="Layer_1" xmlns="http://www.w3.org/2000/svg" xmlns:xlink="http://www.w3.org/1999/xlink" x="0px" y="0px"
	 width="23px" height="20px" viewBox="0 0 23 20" enable-background="new 0 0 23 20" xml:space="preserve">
<g>
	<path fill="#676767" d="M22.907,16.86v1.322c0,0.64-0.119,1.249-0.339,1.809h-1.742v-3.862c0-1.005-0.797-1.828-1.783-1.828H18.3
		v-2.309C20.862,12.071,22.907,14.216,22.907,16.86z"/>
	<path fill="#676767" d="M19.293,5.218c0,2.717-2.021,4.947-4.607,5.203V8.27c1.492-0.238,2.628-1.56,2.628-3.156
		s-1.135-2.918-2.628-3.156V0.009C17.272,0.265,19.293,2.501,19.293,5.218z"/>
	<path fill="#676767" d="M17.528,16.872v1.322c0,0.64-0.119,1.249-0.339,1.809h-1.742v-3.862c0-1.005-0.797-1.828-1.783-1.828H3.957
		c-0.987,0-1.783,0.822-1.783,1.828v3.862H0.431c-0.22-0.56-0.339-1.17-0.339-1.809v-1.322c0-2.693,2.128-4.874,4.756-4.874h7.924
		C15.4,11.998,17.528,14.179,17.528,16.872z"/>
	<path fill="#676767" d="M8.813-0.003c-2.818,0-5.101,2.345-5.101,5.233s2.283,5.227,5.101,5.227c2.818,0,5.1-2.339,5.1-5.227
		S11.631-0.003,8.813-0.003z M8.813,8.325c-1.724,0-3.121-1.432-3.121-3.198s1.397-3.198,3.121-3.198
		c1.724,0,3.121,1.432,3.121,3.198S10.537,8.325,8.813,8.325z"/>
</g>
</svg>
