<?xml version="1.0" encoding="utf-8"?>
<!-- Generator: Adobe Illustrator 17.0.0, SVG Export Plug-In . SVG Version: 6.00 Build 0)  -->
<!DOCTYPE svg PUBLIC "-//W3C//DTD SVG 1.1//EN" "http://www.w3.org/Graphics/SVG/1.1/DTD/svg11.dtd">
<svg version="1.1" id="Layer_1" xmlns="http://www.w3.org/2000/svg" xmlns:xlink="http://www.w3.org/1999/xlink" x="0px" y="0px"
	 width="18px" height="18px" viewBox="0 0 18 18" enable-background="new 0 0 18 18" xml:space="preserve">
<g>
	
		<linearGradient id="SVGID_1_" gradientUnits="userSpaceOnUse" x1="306.0124" y1="-368.8947" x2="306.0124" y2="-384.9374" gradientTransform="matrix(1 0 0 -1 -297 -367)">
		<stop  offset="0" style="stop-color:#FDE971"/>
		<stop  offset="1" style="stop-color:#F69C32"/>
	</linearGradient>
	<path fill="url(#SVGID_1_)" d="M18.055,9c0,4.936-4.048,8.938-9.042,8.938S-0.03,13.936-0.03,9c0-4.936,4.048-8.938,9.042-8.938
		S18.055,4.064,18.055,9"/>
	
		<linearGradient id="SVGID_2_" gradientUnits="userSpaceOnUse" x1="306.013" y1="-374.8828" x2="306.013" y2="-382.7031" gradientTransform="matrix(1 0 0 -1 -297 -367)">
		<stop  offset="0" style="stop-color:#472416"/>
		<stop  offset="1" style="stop-color:#8B3C1E"/>
	</linearGradient>
	<path fill="url(#SVGID_2_)" d="M3.362,9.009c0,2.251,1.137,6.694,5.651,6.694c4.513,0,5.651-4.443,5.651-6.694
		c0-0.178-1.82-1.126-5.651-1.126S3.362,8.831,3.362,9.009z"/>
	
		<linearGradient id="SVGID_3_" gradientUnits="userSpaceOnUse" x1="306.0186" y1="-379.3515" x2="306.0186" y2="-382.0965" gradientTransform="matrix(1 0 0 -1 -297 -367)">
		<stop  offset="0" style="stop-color:#F1617D"/>
		<stop  offset="1" style="stop-color:#D91E3A"/>
	</linearGradient>
	<path fill="url(#SVGID_3_)" d="M5.104,14.027c0.909,1.112,2.155,1.676,3.921,1.676c1.767,0,3.001-0.564,3.909-1.676
		c-0.623-0.657-1.807-1.676-3.909-1.676S5.728,13.37,5.104,14.027z"/>
	<path fill="#2B3755" d="M6.993,4.692c0.297,0.21,0.567,0.508,0.463,0.88C7.376,5.856,7.237,5.985,6.98,5.986
		c-0.882,0.013-1.93,0.286-2.832,0.685C4.074,6.703,3.925,6.769,3.772,6.766c-0.14-0.003-0.284-0.065-0.37-0.265
		C3.327,6.325,3.32,6.067,3.715,5.833c0.616-0.369,1.421-0.536,2.158-0.675C5.409,4.82,4.912,4.532,4.386,4.3
		C3.903,4.083,3.956,3.789,4.021,3.63c0.144-0.354,0.688-0.219,1.218,0.029C5.858,3.944,6.445,4.29,6.993,4.692z M11.036,4.692
		c0.547-0.402,1.134-0.748,1.752-1.033c0.531-0.248,1.074-0.383,1.218-0.029c0.064,0.16,0.118,0.454-0.365,0.67
		c-0.525,0.232-1.022,0.52-1.484,0.858c0.735,0.137,1.54,0.306,2.155,0.675c0.394,0.235,0.387,0.492,0.312,0.668
		c-0.087,0.201-0.229,0.261-0.37,0.265c-0.153,0.003-0.302-0.063-0.375-0.095C12.979,6.272,11.93,6,11.05,5.987
		c-0.258-0.002-0.397-0.131-0.477-0.413c-0.103-0.372,0.166-0.67,0.463-0.88C11.036,4.693,11.036,4.692,11.036,4.692z"/>
</g>
</svg>
