<?xml version="1.0" encoding="utf-8"?>
<!-- Generator: Adobe Illustrator 17.0.0, SVG Export Plug-In . SVG Version: 6.00 Build 0)  -->
<!DOCTYPE svg PUBLIC "-//W3C//DTD SVG 1.1//EN" "http://www.w3.org/Graphics/SVG/1.1/DTD/svg11.dtd">
<svg version="1.1" id="Layer_1" xmlns="http://www.w3.org/2000/svg" xmlns:xlink="http://www.w3.org/1999/xlink" x="0px" y="0px"
	 width="17.74px" height="21px" viewBox="0 0 17.74 21" enable-background="new 0 0 17.74 21" xml:space="preserve">
<path fill="#FFFFFF" d="M15.96,5.35l-5.9-4.72C9.72,0.23,9.32,0,8.87,0S8.02,0.23,7.68,0.63l-5.9,4.72L0,6.77v11.25
	c0.11,0.43,0.28,0.83,0.51,1.19c0.32,0.52,0.76,0.96,1.27,1.28c0.35,0.23,0.74,0.4,1.15,0.51h11.88c0.41-0.11,0.8-0.28,1.15-0.51
	c0.51-0.32,0.95-0.76,1.27-1.28c0.23-0.36,0.4-0.76,0.51-1.19V6.77L15.96,5.35z M10.69,19.21H7.05v-5.77h3.64V19.21z M15.96,17.55
	c-0.15,0.73-0.62,1.34-1.27,1.66h-2.21v-6.65c0-0.42-0.17-0.78-0.41-0.88h-0.08v-0.02c-0.02-0.01-0.03-0.01-0.05-0.01H5.8
	c-0.02,0-0.03,0-0.05,0.01v0.02H5.67c-0.24,0.1-0.41,0.46-0.41,0.88v6.65H3.05c-0.65-0.32-1.12-0.93-1.27-1.66
	c-0.03-0.15-0.05-0.31-0.05-0.48c0-0.17,0.02-0.33,0.05-0.48V7.48l5.05-4.06l1.46-1.17l0.04-0.04C8.5,2.04,8.68,1.95,8.87,1.95
	s0.37,0.09,0.54,0.26l0.04,0.04l1.46,1.17l5.05,4.06v9.11c0.03,0.15,0.05,0.31,0.05,0.48C16.01,17.24,15.99,17.4,15.96,17.55z"/>
</svg>
