<?xml version="1.0" encoding="utf-8"?>
<!-- Generator: Adobe Illustrator 17.0.0, SVG Export Plug-In . SVG Version: 6.00 Build 0)  -->
<!DOCTYPE svg PUBLIC "-//W3C//DTD SVG 1.1//EN" "http://www.w3.org/Graphics/SVG/1.1/DTD/svg11.dtd">
<svg version="1.1" id="Layer_1" xmlns="http://www.w3.org/2000/svg" xmlns:xlink="http://www.w3.org/1999/xlink" x="0px" y="0px"
	 width="17px" height="18px" viewBox="0 0 17 18" enable-background="new 0 0 17 18" xml:space="preserve">
<path fill="#34465D" d="M4.159,18.012c-1.492-0.262-2.595-1.096-3.435-2.305c-1.223-1.758-0.79-3.861,0.508-5.168
	c3.211-3.233,6.476-6.415,9.714-9.622C11.473,0.395,12.132,0.166,12.83,0c0.243,0,0.487,0,0.73,0
	c1.043,0.233,1.86,0.801,2.513,1.625c1.075,1.355,0.97,3.05-0.261,4.267c-2.826,2.792-5.646,5.59-8.472,8.382
	c-0.478,0.472-1.032,0.825-1.73,0.86c-1.01,0.051-2.063-0.657-2.535-1.681c-0.388-0.842-0.174-1.785,0.628-2.582
	c2.133-2.119,4.276-4.227,6.418-6.339c0.369-0.363,0.718-0.385,1.025-0.082c0.304,0.3,0.281,0.661-0.08,1.016
	c-1.982,1.947-3.971,3.885-5.946,5.84c-0.262,0.26-0.49,0.571-0.666,0.894c-0.237,0.436-0.148,0.844,0.176,1.177
	c0.346,0.355,0.769,0.464,1.215,0.255c0.311-0.144,0.615-0.343,0.858-0.581c2.584-2.54,5.164-5.086,7.722-7.652
	c0.331-0.331,0.609-0.762,0.775-1.196c0.537-1.399-0.819-2.951-2.312-2.685C12.237,1.634,11.73,2,11.274,2.45
	c-2.818,2.781-5.643,5.556-8.446,8.352c-0.384,0.383-0.724,0.837-0.978,1.312c-0.909,1.7-0.185,3.6,1.641,4.298
	c0.41,0.157,0.898,0.212,1.336,0.171c1.013-0.094,1.802-0.666,2.501-1.355c2.133-2.1,4.256-4.209,6.385-6.312
	c0.132-0.131,0.273-0.261,0.432-0.356c0.31-0.185,0.65-0.101,0.855,0.182c0.216,0.296,0.128,0.628-0.266,1.017
	c-2.34,2.311-4.672,4.629-7.029,6.923c-0.368,0.358-0.822,0.65-1.283,0.883c-0.423,0.213-0.91,0.304-1.368,0.449
	C4.754,18.014,4.457,18.014,4.159,18.012z"/>
</svg>
