<?xml version="1.0" encoding="utf-8"?>
<!-- Generator: Adobe Illustrator 17.0.0, SVG Export Plug-In . SVG Version: 6.00 Build 0)  -->
<!DOCTYPE svg PUBLIC "-//W3C//DTD SVG 1.1//EN" "http://www.w3.org/Graphics/SVG/1.1/DTD/svg11.dtd">
<svg version="1.1" id="Layer_1" xmlns="http://www.w3.org/2000/svg" xmlns:xlink="http://www.w3.org/1999/xlink" x="0px" y="0px"
	 width="18px" height="18px" viewBox="0 0 18 18" enable-background="new 0 0 18 18" xml:space="preserve">
<g>
	
		<linearGradient id="SVGID_1_" gradientUnits="userSpaceOnUse" x1="306" y1="-367" x2="306" y2="-385" gradientTransform="matrix(1 0 0 -1 -297 -367)">
		<stop  offset="0" style="stop-color:#4BA9DE"/>
		<stop  offset="1" style="stop-color:#3A65B0"/>
	</linearGradient>
	<path fill="url(#SVGID_1_)" d="M9,0C4.029,0,0,4.029,0,9s4.029,9,9,9s9-4.029,9-9S13.971,0,9,0z"/>
	<path fill="#FFFFFF" d="M13.682,8.255c0.198,0.138,0.38,0.276,0.38,0.758c0,0.484-0.258,0.679-0.533,0.816
		c0.113,0.183,0.148,0.405,0.1,0.614c-0.087,0.387-0.441,0.687-0.756,0.776c0.136,0.218,0.179,0.433,0.017,0.698
		c-0.208,0.332-0.389,0.458-1.19,0.458H8.438c-1.111,0-1.688-0.614-1.688-1.125V8.623c0-1.384,1.65-2.559,1.65-3.521L8.281,3.904
		C8.276,3.831,8.29,3.652,8.346,3.6c0.09-0.089,0.339-0.225,0.714-0.225c0.245,0,0.408,0.046,0.601,0.138
		c0.654,0.312,0.824,1.1,0.824,1.735c0,0.305-0.466,1.218-0.529,1.534c0,0,0.975-0.216,2.114-0.224
		c1.194-0.007,1.968,0.214,1.968,0.947C14.038,7.8,13.791,8.094,13.682,8.255z M4.05,7.875h0.9c0.373,0,0.675,0.302,0.675,0.675
		v4.275c0,0.373-0.302,0.675-0.675,0.675c0,0,0,0,0,0h-0.9c-0.373,0-0.675-0.302-0.675-0.675c0,0,0,0,0,0V8.55
		C3.375,8.177,3.677,7.875,4.05,7.875z"/>
</g>
</svg>
