<?xml version="1.0" encoding="utf-8"?>
<!-- Generator: Adobe Illustrator 17.0.0, SVG Export Plug-In . SVG Version: 6.00 Build 0)  -->
<!DOCTYPE svg PUBLIC "-//W3C//DTD SVG 1.1//EN" "http://www.w3.org/Graphics/SVG/1.1/DTD/svg11.dtd">
<svg version="1.1" id="Layer_1" xmlns="http://www.w3.org/2000/svg" xmlns:xlink="http://www.w3.org/1999/xlink" x="0px" y="0px"
	 width="40.5px" height="40.5px" viewBox="0 0 40.5 40.5" enable-background="new 0 0 40.5 40.5" xml:space="preserve">
<g>
	<path fill="#90BA3F" d="M40.496,15.487c0,8.039-3.401,15.319-8.897,20.577c-1.768,1.688-3.751,3.172-5.909,4.402h-9.912
		c0.842-0.278,1.655-0.616,2.44-0.999c4.344-0.335,8.29-2.024,11.388-4.62c3.435-2.881,5.821-6.892,6.533-11.425
		c0.149-0.935,0.225-1.889,0.225-2.861c0-2.972-0.712-5.787-1.983-8.29c0-0.004-0.004-0.004-0.004-0.006
		c-0.451-1.626-1.442-3.044-2.778-4.062c-2.741-3.06-6.476-5.273-10.728-6.167V1.906h-0.669c-0.261-0.046-0.523-0.087-0.79-0.121
		c2.052-1.116,4.422-1.752,6.949-1.752c6.375,0,11.77,4.06,13.529,9.635v0.004c0.326,1.528,0.523,3.089,0.585,4.692v0.012
		C40.49,14.747,40.496,15.116,40.496,15.487z"/>
	<path fill="#66471F" d="M34.654,14.279c0,3.599-2.547,6.625-6.001,7.506c0.004-0.109,0.004-0.216,0.004-0.325
		c0-2.782-0.932-5.358-2.516-7.446c0-0.004-0.004-0.004-0.004-0.006c-1.269-2.136-2.967-4.002-4.983-5.492
		c1.433-1.244,3.334-2.001,5.417-2.001c1.901,0,3.645,0.632,5.027,1.688c1.098,1.227,2.035,2.592,2.778,4.062
		c0,0.004,0.004,0.004,0.004,0.006C34.56,12.912,34.654,13.586,34.654,14.279z"/>
	<path fill="#030303" d="M31.599,8.203c-1.381-1.059-3.127-1.688-5.027-1.688c-2.083,0-3.984,0.757-5.417,2.001
		c-0.095-0.069-0.189-0.137-0.283-0.203v0.462H13.15c0.468-1.18,1.103-2.281,1.88-3.278c1.124-1.449,2.54-2.669,4.166-3.591h1.008
		c0.225,0.038,0.449,0.081,0.669,0.131C25.121,2.929,28.858,5.144,31.599,8.203z"/>
	<path fill="#511E58" d="M28.634,23.095c0,1.368-0.155,2.704-0.456,3.987c-0.665,2.903-2.052,5.552-3.962,7.761
		c-1.644,1.901-3.686,3.482-5.999,4.62c-0.788,0.383-1.597,0.722-2.44,0.999H0.128V1.906h19.067
		c-1.625,0.922-3.043,2.142-4.166,3.591c-0.777,0.997-1.411,2.098-1.88,3.278H7.279v25.368h8.177c5.151,0,9.615-2.839,11.786-6.975
		c0.766-1.455,1.252-3.069,1.377-4.779C28.632,22.622,28.634,22.86,28.634,23.095z"/>
	<path fill="#AF1F28" d="M27.242,27.169c-2.171,4.138-6.636,6.975-11.786,6.975H7.279V8.775h5.873
		c-0.032,0.069-0.056,0.137-0.084,0.206c-0.546,1.447-0.844,3.006-0.844,4.634c0,7.499,6.331,13.582,14.136,13.582
		C26.655,27.196,26.948,27.187,27.242,27.169z"/>
	<path fill="#F2BC1A" d="M28.586,21.801c-0.643,0.16-1.319,0.244-2.016,0.244c-4.465,0-8.082-3.476-8.082-7.765
		c0-1.761,0.607-3.382,1.638-4.682c0.227-0.29,0.479-0.564,0.743-0.821c0.09-0.087,0.185-0.176,0.283-0.259
		c2.016,1.489,3.714,3.357,4.983,5.492c0,0.004,0.004,0.004,0.004,0.006C27.516,16.343,28.384,18.984,28.586,21.801z"/>
	<path fill="#12508A" d="M28.655,21.459c0,0.109,0,0.216-0.004,0.325c-0.006,0.203-0.017,0.404-0.032,0.603
		c-0.126,1.711-0.611,3.325-1.377,4.779c-0.292,0.018-0.585,0.029-0.88,0.029c-7.805,0-14.136-6.083-14.136-13.582
		c0-1.626,0.298-3.187,0.844-4.634c0.026-0.069,0.052-0.137,0.082-0.206h7.721c-0.269,0.257-0.518,0.533-0.745,0.823
		c-1.031,1.302-1.638,2.923-1.638,4.682c0,4.29,3.617,7.765,8.082,7.765c0.695,0,1.371-0.085,2.016-0.244
		c-0.201-2.816-1.069-5.457-2.447-7.788C27.723,16.103,28.655,18.68,28.655,21.459z"/>
	<path fill="#030303" d="M36.364,20.561c0,0.97-0.076,1.926-0.225,2.861c-0.712,4.533-3.097,8.542-6.533,11.425
		c-3.097,2.598-7.042,4.288-11.388,4.62c2.314-1.14,4.355-2.72,5.999-4.62c1.91-2.211,3.295-4.858,3.962-7.761
		c0.298-1.283,0.456-2.619,0.456-3.987c0-0.238-0.004-0.474-0.017-0.709c0.017-0.199,0.026-0.4,0.032-0.603
		c3.455-0.879,6.001-3.906,6.001-7.506c0-0.694-0.095-1.368-0.272-2.007C35.652,14.776,36.364,17.588,36.364,20.561z"/>
</g>
</svg>
