<?xml version="1.0" encoding="utf-8"?>
<!-- Generator: Adobe Illustrator 17.0.0, SVG Export Plug-In . SVG Version: 6.00 Build 0)  -->
<!DOCTYPE svg PUBLIC "-//W3C//DTD SVG 1.1//EN" "http://www.w3.org/Graphics/SVG/1.1/DTD/svg11.dtd">
<svg version="1.1" id="Layer_1" xmlns="http://www.w3.org/2000/svg" xmlns:xlink="http://www.w3.org/1999/xlink" x="0px" y="0px"
	 width="18px" height="18px" viewBox="0 0 18 18" enable-background="new 0 0 18 18" xml:space="preserve">
<g>
	
		<linearGradient id="SVGID_1_" gradientUnits="userSpaceOnUse" x1="305.9922" y1="-367.0469" x2="305.9922" y2="-385" gradientTransform="matrix(1 0 0 -1 -297 -367)">
		<stop  offset="0" style="stop-color:#F16681"/>
		<stop  offset="1" style="stop-color:#E51C3B"/>
	</linearGradient>
	<path fill="url(#SVGID_1_)" d="M8.992,0.047c-4.975,0-9.008,4.019-9.008,8.977S4.017,18,8.992,18S18,13.981,18,9.023
		S13.967,0.047,8.992,0.047z"/>
	<path fill="#FFFFFF" d="M11.777,4.535c-2.475,0-2.785,2.047-2.785,2.047S8.684,4.535,6.209,4.535c-2.38,0-3.074,2.493-2.783,3.826
		c0.766,3.523,5.567,5.992,5.567,5.992s4.802-2.469,5.568-5.992C14.85,7.028,14.155,4.535,11.777,4.535z"/>
</g>
</svg>
