<?xml version="1.0" encoding="utf-8"?>
<!-- Generator: Adobe Illustrator 17.0.0, SVG Export Plug-In . SVG Version: 6.00 Build 0)  -->
<!DOCTYPE svg PUBLIC "-//W3C//DTD SVG 1.1//EN" "http://www.w3.org/Graphics/SVG/1.1/DTD/svg11.dtd">
<svg version="1.1" id="Layer_1" xmlns="http://www.w3.org/2000/svg" xmlns:xlink="http://www.w3.org/1999/xlink" x="0px" y="0px"
	 width="20px" height="20px" viewBox="0 0 20 20" enable-background="new 0 0 20 20" xml:space="preserve">
<path fill="#676767" d="M16.923-0.008H3.077C1.372-0.008,0,1.365,0,3.071v13.858c0,1.7,1.372,3.079,3.077,3.079h13.846
	c1.698,0,3.077-1.38,3.077-3.079V3.071C20,1.365,18.622-0.008,16.923-0.008z M6.154,17.927H3.92c-1.022,0-1.846-0.825-1.846-1.848
	V8.331h4.08V17.927z M17.92,16.079c0,1.022-0.825,1.848-1.846,1.848H7.951V8.331h9.969V16.079z M17.92,6.12H2.074V3.915
	c0-1.022,0.825-1.848,1.846-1.848h12.154c1.022,0,1.846,0.825,1.846,1.848V6.12z"/>
</svg>
