<?xml version="1.0" encoding="utf-8"?>
<!-- Generator: Adobe Illustrator 17.0.0, SVG Export Plug-In . SVG Version: 6.00 Build 0)  -->
<!DOCTYPE svg PUBLIC "-//W3C//DTD SVG 1.1//EN" "http://www.w3.org/Graphics/SVG/1.1/DTD/svg11.dtd">
<svg version="1.1" id="Layer_1" xmlns="http://www.w3.org/2000/svg" xmlns:xlink="http://www.w3.org/1999/xlink" x="0px" y="0px"
	 width="18px" height="20px" viewBox="0 0 18 20" enable-background="new 0 0 18 20" xml:space="preserve">
<g>
	<path fill="#676868" d="M17.97,16.83v1.318c0,0.638-0.123,1.246-0.349,1.804h-1.795v-3.852c0-1.003-0.821-1.823-1.838-1.823H3.983
		c-1.017,0-1.838,0.82-1.838,1.823v3.852H0.349C0.123,19.394,0,18.786,0,18.148V16.83c0-2.685,2.193-4.861,4.902-4.861h8.167
		C15.777,11.969,17.97,14.144,17.97,16.83z"/>
	<path fill="#676868" d="M8.988,0C6.084,0,3.731,2.339,3.731,5.219s2.353,5.213,5.257,5.213c2.904,0,5.257-2.333,5.257-5.213
		S11.892,0,8.988,0z M8.988,8.305c-1.777,0-3.217-1.428-3.217-3.19s1.44-3.19,3.217-3.19c1.777,0,3.217,1.428,3.217,3.19
		S10.765,8.305,8.988,8.305z"/>
</g>
</svg>
