<?xml version="1.0" encoding="utf-8"?>
<!-- Generator: Adobe Illustrator 17.0.0, SVG Export Plug-In . SVG Version: 6.00 Build 0)  -->
<!DOCTYPE svg PUBLIC "-//W3C//DTD SVG 1.1//EN" "http://www.w3.org/Graphics/SVG/1.1/DTD/svg11.dtd">
<svg version="1.1" id="Layer_1" xmlns="http://www.w3.org/2000/svg" xmlns:xlink="http://www.w3.org/1999/xlink" x="0px" y="0px"
	 width="24px" height="24px" viewBox="0 0 24 24" enable-background="new 0 0 24 24" xml:space="preserve">
<g>
	<circle fill="#FFFFFF" cx="12.076" cy="12" r="12"/>
	<g>
		<path fill="#E0E1E0" d="M12.076,0.7c-6.242,0-11.3,5.06-11.3,11.3c0,3.07,1.225,5.854,3.213,7.89
			c2.05,2.104,4.916,3.409,8.086,3.409c3.139,0,5.979-1.281,8.025-3.346c2.025-2.041,3.275-4.853,3.275-7.954
			C23.376,5.76,18.316,0.7,12.076,0.7z M8.648,6.234c0.417-1.461,1.762-2.529,3.357-2.529c1.572,0,2.899,1.037,3.337,2.464
			c0.1,0.324,0.154,0.667,0.154,1.024c0,1.929-1.563,3.492-3.492,3.492c-1.927,0-3.492-1.563-3.492-3.492
			C8.513,6.861,8.56,6.539,8.648,6.234z M12.076,19.808c-2.994,0-5.606-1.442-6.995-3.584c1.396-2.117,3.992-3.539,6.966-3.539
			c2.994,0,5.606,1.442,6.995,3.584C17.644,18.385,15.048,19.808,12.076,19.808z"/>
		<path fill="#A1A1A0" d="M19.042,16.27c-1.398,2.117-3.994,3.539-6.966,3.539c-2.994,0-5.606-1.442-6.995-3.584
			c1.396-2.117,3.992-3.539,6.966-3.539C15.041,12.685,17.652,14.127,19.042,16.27z"/>
		<path fill="#A1A1A0" d="M15.496,7.195c0,1.929-1.563,3.492-3.492,3.492c-1.927,0-3.492-1.563-3.492-3.492
			c0-0.333,0.048-0.655,0.135-0.96c0.417-1.461,1.762-2.529,3.357-2.529c1.572,0,2.899,1.037,3.337,2.464
			C15.442,6.493,15.496,6.838,15.496,7.195z"/>
	</g>
</g>
</svg>
