<?xml version="1.0" encoding="utf-8"?>
<!-- Generator: Adobe Illustrator 17.0.0, SVG Export Plug-In . SVG Version: 6.00 Build 0)  -->
<!DOCTYPE svg PUBLIC "-//W3C//DTD SVG 1.1//EN" "http://www.w3.org/Graphics/SVG/1.1/DTD/svg11.dtd">
<svg version="1.1" id="Layer_1" xmlns="http://www.w3.org/2000/svg" xmlns:xlink="http://www.w3.org/1999/xlink" x="0px" y="0px"
	 width="12px" height="12px" viewBox="0 0 12 12" enable-background="new 0 0 12 12" xml:space="preserve">
<g>
	<path fill="#949494" d="M11.991,5.759c-0.046-0.004-0.092-0.011-0.139-0.011c-0.83-0.001-1.661,0-2.491,0c-0.046,0-0.092,0-0.118,0
		C9.166,4.976,9.091,4.22,9.015,3.448c0.02,0,0.061,0,0.103,0c0.733,0,1.466,0.002,2.199-0.002c0.094-0.001,0.135,0.031,0.171,0.115
		c0.264,0.611,0.428,1.246,0.484,1.91c0.003,0.034,0.013,0.067,0.019,0.101C11.991,5.634,11.991,5.697,11.991,5.759z"/>
	<path fill="#949494" d="M0,5.571c0.031-0.22,0.057-0.44,0.094-0.659c0.083-0.484,0.229-0.949,0.433-1.395
		c0.014-0.031,0.06-0.066,0.091-0.066C1.4,3.448,2.18,3.449,2.961,3.45c0.011,0,0.021,0.007,0.014,0.004
		C2.899,4.217,2.824,4.974,2.748,5.748c-0.023,0-0.069,0-0.115,0c-0.831,0-1.663,0-2.494,0C0.092,5.748,0.046,5.755,0,5.759
		C0,5.697,0,5.634,0,5.571z"/>
	<path fill="#949494" d="M0,6.229c0.046,0.003,0.093,0.01,0.139,0.01c0.831,0.001,1.663,0,2.494,0c0.046,0,0.091,0,0.114,0
		C2.824,7.014,2.899,7.771,2.976,8.54c-0.025,0-0.067,0-0.108,0c-0.73,0-1.46-0.002-2.19,0.002c-0.091,0-0.135-0.025-0.173-0.112
		C0.239,7.819,0.076,7.182,0.019,6.518C0.016,6.484,0.007,6.451,0,6.417C0,6.354,0,6.292,0,6.229z"/>
	<path fill="#949494" d="M11.991,6.417c-0.031,0.22-0.057,0.441-0.094,0.66c-0.083,0.484-0.23,0.949-0.434,1.395
		c-0.014,0.03-0.06,0.065-0.092,0.065C10.59,8.54,9.809,8.539,9.029,8.538c-0.011,0-0.021-0.007-0.014-0.004
		C9.091,7.77,9.166,7.014,9.244,6.239c0.023,0,0.069,0,0.114,0c0.831,0,1.663,0,2.494,0c0.046,0,0.093-0.006,0.139-0.01
		C11.991,6.292,11.991,6.354,11.991,6.417z"/>
	<path fill="#949494" d="M5.745,3.458c0,0.763,0,1.516,0,2.28c-0.82,0-1.636,0-2.461,0c-0.003-0.024-0.008-0.05-0.008-0.075
		C3.29,4.949,3.365,4.243,3.505,3.543C3.517,3.482,3.53,3.446,3.604,3.447c0.694,0.003,1.388,0.002,2.083,0.002
		C5.702,3.449,5.717,3.453,5.745,3.458z"/>
	<path fill="#949494" d="M6.251,3.448c0.042,0,0.08,0,0.118,0c0.659,0,1.318,0.002,1.977-0.002c0.089,0,0.126,0.02,0.145,0.115
		C8.626,4.258,8.701,4.96,8.716,5.669c0,0.019,0,0.038,0,0.068c-0.822,0-1.638,0-2.464,0C6.251,4.98,6.251,4.221,6.251,3.448z"/>
	<path fill="#949494" d="M3.28,6.245c0.825,0,1.639,0,2.462,0c0,0.762,0,1.519,0,2.288C5.704,8.535,5.667,8.54,5.63,8.54
		c-0.663,0-1.326-0.002-1.989,0.003C3.547,8.543,3.516,8.513,3.499,8.423c-0.133-0.693-0.21-1.391-0.223-2.097
		C3.276,6.304,3.278,6.28,3.28,6.245z"/>
	<path fill="#949494" d="M8.721,6.25C8.71,6.478,8.713,6.702,8.686,6.922C8.626,7.434,8.55,7.944,8.483,8.455
		C8.475,8.517,8.453,8.541,8.388,8.541C7.69,8.539,6.992,8.539,6.294,8.539c-0.011,0-0.022-0.005-0.043-0.01
		c0-0.756,0-1.512,0-2.279C7.065,6.25,7.882,6.25,8.721,6.25z"/>
	<path fill="#949494" d="M6.247,2.945c0-0.981,0-1.955,0-2.94c0.196,0.028,0.365,0.112,0.524,0.216
		C7.1,0.438,7.345,0.735,7.559,1.061c0.294,0.448,0.704,1.436,0.776,1.884C7.643,2.945,6.952,2.945,6.247,2.945z"/>
	<path fill="#949494" d="M6.25,9.039c0.7,0,1.39,0,2.098,0C8.296,9.212,8.251,9.376,8.197,9.537
		c-0.198,0.592-0.441,1.162-0.828,1.659c-0.278,0.357-0.602,0.656-1.055,0.778c-0.018,0.005-0.037,0.007-0.065,0.012
		C6.25,11.002,6.25,10.026,6.25,9.039z"/>
	<path fill="#949494" d="M3.644,2.944C3.696,2.772,3.74,2.607,3.795,2.446C4.017,1.791,4.29,1.161,4.752,0.635
		C5.017,0.333,5.324,0.094,5.739,0c0,0.983,0,1.958,0,2.944C5.048,2.944,4.353,2.944,3.644,2.944z"/>
	<path fill="#949494" d="M5.743,9.045c0,0.978,0,1.952,0,2.954c-0.126-0.048-0.248-0.082-0.359-0.138
		c-0.332-0.166-0.585-0.425-0.804-0.72C4.117,10.515,3.86,9.797,3.644,9.045C4.346,9.045,5.038,9.045,5.743,9.045z"/>
	<path fill="#949494" d="M11.181,2.955c-0.205,0-0.376,0-0.547,0c-0.546,0-1.092-0.003-1.638,0.003
		C8.894,2.959,8.855,2.925,8.831,2.829C8.679,2.229,8.477,1.645,8.162,1.11C7.99,0.819,7.776,0.554,7.579,0.278
		C7.556,0.244,7.526,0.215,7.506,0.177C9.092,0.606,10.306,1.528,11.181,2.955z"/>
	<path fill="#949494" d="M4.492,11.824C2.897,11.38,1.683,10.459,0.815,9.04c0.063-0.003,0.1-0.006,0.138-0.006
		c0.683,0,1.365,0.002,2.048-0.003C3.099,9.03,3.135,9.063,3.158,9.153c0.191,0.742,0.46,1.452,0.89,2.091
		C4.181,11.44,4.336,11.622,4.492,11.824z"/>
	<path fill="#949494" d="M0.82,2.939c0.866-1.41,2.078-2.331,3.671-2.754c-0.025,0.029-0.049,0.06-0.075,0.088
		C3.912,0.826,3.596,1.485,3.353,2.184C3.275,2.408,3.217,2.64,3.143,2.866C3.131,2.902,3.081,2.951,3.049,2.951
		C2.323,2.956,1.598,2.954,0.872,2.954C0.862,2.954,0.851,2.948,0.82,2.939z"/>
	<path fill="#949494" d="M11.18,9.033c-0.874,1.427-2.089,2.348-3.701,2.797c0.098-0.115,0.179-0.203,0.253-0.296
		c0.529-0.671,0.842-1.446,1.07-2.26c0.067-0.24,0.066-0.24,0.309-0.24c0.636,0,1.272,0,1.907,0
		C11.062,9.033,11.104,9.033,11.18,9.033z"/>
</g>
</svg>
