<?xml version="1.0" encoding="utf-8"?>
<!-- Generator: Adobe Illustrator 17.0.0, SVG Export Plug-In . SVG Version: 6.00 Build 0)  -->
<!DOCTYPE svg PUBLIC "-//W3C//DTD SVG 1.1//EN" "http://www.w3.org/Graphics/SVG/1.1/DTD/svg11.dtd">
<svg version="1.1" id="Layer_1" xmlns="http://www.w3.org/2000/svg" xmlns:xlink="http://www.w3.org/1999/xlink" x="0px" y="0px"
	 width="18px" height="18px" viewBox="0 0 18 18" enable-background="new 0 0 18 18" xml:space="preserve">
<g>
	
		<linearGradient id="SVGID_1_" gradientUnits="userSpaceOnUse" x1="306" y1="-368.9193" x2="306" y2="-384.9995" gradientTransform="matrix(1 0 0 -1 -297 -367)">
		<stop  offset="0" style="stop-color:#FDE971"/>
		<stop  offset="1" style="stop-color:#F69C32"/>
	</linearGradient>
	<path fill="url(#SVGID_1_)" d="M17.959,9.041C17.959,13.989,13.948,18,9,18s-8.959-4.011-8.959-8.959
		c0-4.948,4.011-8.959,8.959-8.959S17.959,4.093,17.959,9.041"/>
	
		<linearGradient id="SVGID_2_" gradientUnits="userSpaceOnUse" x1="306.0005" y1="-379.4005" x2="306.0005" y2="-381.6401" gradientTransform="matrix(1 0 0 -1 -297 -367)">
		<stop  offset="0" style="stop-color:#472416"/>
		<stop  offset="1" style="stop-color:#8B3C1E"/>
	</linearGradient>
	<path fill="url(#SVGID_2_)" d="M6.014,14.377c0,0.153,0.105,0.263,0.28,0.263c0.393,0,0.936-0.7,2.707-0.7s2.315,0.7,2.707,0.7
		c0.175,0,0.28-0.11,0.28-0.263c0-0.445-0.939-1.976-2.986-1.976S6.014,13.932,6.014,14.377z"/>
	
		<linearGradient id="SVGID_3_" gradientUnits="userSpaceOnUse" x1="305.9994" y1="-375.2954" x2="305.9994" y2="-378.2807" gradientTransform="matrix(1 0 0 -1 -297 -367)">
		<stop  offset="0" style="stop-color:#191A33"/>
		<stop  offset="0.872" style="stop-color:#3C436B"/>
	</linearGradient>
	<path fill="url(#SVGID_3_)" d="M4.072,9.937c0-0.907,0.57-1.642,1.27-1.642c0.702,0,1.27,0.735,1.27,1.642
		c0,0.378-0.101,0.728-0.267,1.006c-0.075,0.125-0.196,0.216-0.337,0.252c-0.157,0.041-0.395,0.086-0.666,0.086
		c-0.272,0-0.507-0.045-0.666-0.086c-0.141-0.036-0.262-0.127-0.336-0.252c-0.179-0.305-0.272-0.652-0.269-1.006H4.072z
		 M11.389,9.937c0-0.907,0.569-1.642,1.269-1.642c0.702,0,1.27,0.735,1.27,1.642c0,0.378-0.101,0.728-0.267,1.006
		c-0.074,0.125-0.196,0.216-0.337,0.252c-0.437,0.113-0.896,0.113-1.333,0c-0.141-0.036-0.262-0.127-0.336-0.252
		C11.477,10.638,11.385,10.29,11.389,9.937z"/>
	<path fill="#010101" d="M4.072,9.937c0-0.907,0.57-1.642,1.27-1.642c0.702,0,1.27,0.735,1.27,1.642
		c0,0.378-0.101,0.728-0.267,1.006c-0.075,0.125-0.196,0.216-0.337,0.252c-0.157,0.041-0.395,0.086-0.666,0.086
		c-0.272,0-0.507-0.045-0.666-0.086c-0.141-0.036-0.262-0.127-0.336-0.252c-0.179-0.305-0.272-0.652-0.269-1.006H4.072z
		 M11.389,9.937c0-0.907,0.569-1.642,1.269-1.642c0.702,0,1.27,0.735,1.27,1.642c0,0.378-0.101,0.728-0.267,1.006
		c-0.074,0.125-0.196,0.216-0.337,0.252c-0.437,0.113-0.896,0.113-1.333,0c-0.141-0.036-0.262-0.127-0.336-0.252
		C11.477,10.638,11.385,10.29,11.389,9.937z"/>
	<path fill="#4F516A" d="M5.211,9.025c0.143,0.14,0.152,0.417,0.019,0.616c-0.134,0.2-0.358,0.25-0.502,0.109
		C4.585,9.61,4.577,9.333,4.71,9.134C4.844,8.933,5.068,8.886,5.211,9.025z M12.477,9.025c0.143,0.14,0.152,0.417,0.02,0.616
		c-0.134,0.2-0.358,0.25-0.504,0.109c-0.142-0.14-0.15-0.417-0.017-0.616C12.11,8.933,12.334,8.886,12.477,9.025z"/>
	
		<linearGradient id="SVGID_4_" gradientUnits="userSpaceOnUse" x1="306.0001" y1="-372.6068" x2="306.0001" y2="-375.1451" gradientTransform="matrix(1 0 0 -1 -297 -367)">
		<stop  offset="0" style="stop-color:#E58E24"/>
		<stop  offset="1" style="stop-color:#CA6328"/>
	</linearGradient>
	<path fill="url(#SVGID_4_)" d="M4.697,5.853c0.372-0.171,0.667-0.246,0.897-0.246c0.31,0,0.505,0.134,0.616,0.344
		c0.196,0.368,0.107,0.448-0.222,0.514C4.75,6.715,3.506,7.519,2.966,8.021C2.63,8.335,2.306,7.987,2.478,7.714
		C2.65,7.441,3.345,6.477,4.697,5.853z M11.791,5.951c0.112-0.209,0.306-0.343,0.616-0.343c0.231,0,0.526,0.074,0.897,0.245
		c1.353,0.624,2.047,1.588,2.218,1.861c0.171,0.273-0.15,0.62-0.487,0.307c-0.541-0.502-1.784-1.306-3.023-1.557
		c-0.329-0.065-0.414-0.146-0.221-0.515V5.951z"/>
	
		<linearGradient id="SVGID_5_" gradientUnits="userSpaceOnUse" x1="312.1594" y1="-383.9356" x2="312.1594" y2="-380.1754" gradientTransform="matrix(1 0 0 -1 -297 -367)">
		<stop  offset="0" style="stop-color:#45C8F5"/>
		<stop  offset="1" style="stop-color:#327BBF"/>
	</linearGradient>
	<path fill="url(#SVGID_5_)" d="M15.159,17.999c-0.927,0-1.68-0.838-1.68-1.871c0-1.032,0.399-1.73,0.72-2.404
		c0.67-1.409,0.802-1.604,0.96-1.604c0.158,0,0.29,0.195,0.96,1.604c0.321,0.674,0.72,1.372,0.72,2.404
		C16.839,17.162,16.087,17.999,15.159,17.999z"/>
	
		<linearGradient id="SVGID_6_" gradientUnits="userSpaceOnUse" x1="312.1594" y1="-379.9918" x2="312.1594" y2="-382.3187" gradientTransform="matrix(1 0 0 -1 -297 -367)">
		<stop  offset="0" style="stop-color:#7ED2F0;stop-opacity:0.287"/>
		<stop  offset="1" style="stop-color:#ACE1FA;stop-opacity:0.799"/>
	</linearGradient>
	<path fill="url(#SVGID_6_)" d="M15.159,15.319c-0.367,0-0.665-0.331-0.665-0.739c0-0.41,0.158-0.686,0.286-0.954
		c0.264-0.558,0.317-0.634,0.381-0.634c0.062,0,0.114,0.076,0.378,0.634c0.128,0.269,0.286,0.544,0.286,0.953
		S15.527,15.319,15.159,15.319"/>
</g>
</svg>
