<?xml version="1.0" encoding="utf-8"?>
<!-- Generator: Adobe Illustrator 17.0.0, SVG Export Plug-In . SVG Version: 6.00 Build 0)  -->
<!DOCTYPE svg PUBLIC "-//W3C//DTD SVG 1.1//EN" "http://www.w3.org/Graphics/SVG/1.1/DTD/svg11.dtd">
<svg version="1.1" id="Layer_1" xmlns="http://www.w3.org/2000/svg" xmlns:xlink="http://www.w3.org/1999/xlink" x="0px" y="0px"
	 width="20px" height="20px" viewBox="0 0 20 20" enable-background="new 0 0 20 20" xml:space="preserve">
<path fill="#676767" d="M14.266,0.02H3.039c-1.653,0-2.994,1.376-2.994,3.071v13.818c0,1.695,1.341,3.071,2.994,3.071h13.922
	c1.653,0,2.994-1.376,2.994-3.071V5.854L14.266,0.02z M13.518,17.83H6.38v-5.577h7.138V17.83z M17.71,17.83h-1.772v-6.142
	c0-1.019-0.802-1.842-1.796-1.842H5.71c-0.994,0-1.796,0.823-1.796,1.842v6.142H2.141V1.862h1.772V7.39h10.353V4.626H6.033V1.862
	h7.539l4.138,4.244V17.83z"/>
</svg>
