<?xml version="1.0" encoding="utf-8"?>
<!-- Generator: Adobe Illustrator 17.0.0, SVG Export Plug-In . SVG Version: 6.00 Build 0)  -->
<!DOCTYPE svg PUBLIC "-//W3C//DTD SVG 1.1//EN" "http://www.w3.org/Graphics/SVG/1.1/DTD/svg11.dtd">
<svg version="1.1" id="Layer_1" xmlns="http://www.w3.org/2000/svg" xmlns:xlink="http://www.w3.org/1999/xlink" x="0px" y="0px"
	 width="9px" height="12px" viewBox="0 0 9 12" enable-background="new 0 0 9 12" xml:space="preserve">
<path fill="#66686C" d="M4.499,8.364C4.307,8.572,4.118,8.776,3.929,8.98C3.092,9.883,2.255,10.785,1.42,11.69
	c-0.457,0.495-1.109,0.279-1.333-0.206C0.023,11.345,0,11.198,0.001,11.044c0.001-0.792,0-1.583,0-2.375
	C0.001,6.102,0.002,3.536,0,0.97c0-0.262,0.067-0.49,0.235-0.673C0.38,0.14,0.556,0.053,0.757,0.035
	c0.039-0.003,0.078-0.004,0.117-0.004c2.417,0,4.835,0.001,7.252-0.001c0.255,0,0.477,0.083,0.656,0.287C8.933,0.489,9,0.7,9,0.942
	C8.999,2.378,9,3.815,9,5.251c0,1.936,0,3.871,0,5.807c0,0.451-0.265,0.813-0.659,0.89c-0.293,0.057-0.551-0.031-0.768-0.266
	c-1.013-1.095-2.027-2.189-3.041-3.284C4.523,8.388,4.514,8.379,4.499,8.364z"/>
</svg>
