<?xml version="1.0" encoding="utf-8"?>
<!-- Generator: Adobe Illustrator 17.0.0, SVG Export Plug-In . SVG Version: 6.00 Build 0)  -->
<!DOCTYPE svg PUBLIC "-//W3C//DTD SVG 1.1//EN" "http://www.w3.org/Graphics/SVG/1.1/DTD/svg11.dtd">
<svg version="1.1" id="Layer_1" xmlns="http://www.w3.org/2000/svg" xmlns:xlink="http://www.w3.org/1999/xlink" x="0px" y="0px"
	 width="17px" height="17px" viewBox="0 0 17 17" enable-background="new 0 0 17 17" xml:space="preserve">
<path fill="#6C6D6D" d="M0.025,7.099C0.04,6.843,0.046,6.604,0.071,6.366C0.146,5.638,0.331,4.94,0.623,4.272
	C0.892,3.656,1.24,3.09,1.663,2.575c0.555-0.674,1.205-1.23,1.955-1.662C4.175,0.591,4.763,0.35,5.386,0.205
	C5.63,0.148,5.877,0.107,6.124,0.072c0.182-0.026,0.367-0.036,0.551-0.043c0.194-0.007,0.389-0.01,0.583,0.002
	c0.831,0.049,1.626,0.248,2.385,0.599c0.532,0.246,1.028,0.554,1.482,0.93c0.199,0.165,0.39,0.341,0.574,0.523
	c0.568,0.568,1.025,1.218,1.375,1.947c0.271,0.561,0.47,1.148,0.578,1.764c0.044,0.247,0.076,0.497,0.098,0.746
	c0.019,0.225,0.028,0.452,0.024,0.678c-0.004,0.218-0.024,0.438-0.046,0.655c-0.05,0.496-0.163,0.977-0.321,1.447
	c-0.226,0.669-0.544,1.289-0.95,1.861c-0.032,0.046-0.031,0.043,0.011,0.082c0.145,0.133,0.289,0.267,0.434,0.4
	c0.368,0.341,0.735,0.683,1.103,1.025c0.27,0.251,0.54,0.503,0.81,0.754c0.363,0.337,0.725,0.673,1.088,1.01
	c0.249,0.231,0.499,0.461,0.745,0.695c0.246,0.234,0.354,0.529,0.325,0.87c-0.044,0.505-0.418,0.874-0.855,0.944
	c-0.347,0.056-0.642-0.054-0.9-0.296c-0.511-0.479-1.025-0.954-1.538-1.431c-0.387-0.36-0.773-0.72-1.16-1.08
	c-0.36-0.335-0.722-0.669-1.082-1.005c-0.132-0.124-0.264-0.25-0.393-0.377c-0.057-0.057-0.055-0.06-0.121-0.01
	c-0.612,0.464-1.28,0.816-2.004,1.056c-0.327,0.108-0.661,0.19-1.001,0.243c-0.186,0.029-0.374,0.049-0.562,0.061
	c-0.223,0.013-0.446,0.021-0.669,0.016c-0.193-0.004-0.387-0.028-0.58-0.048c-0.308-0.032-0.611-0.096-0.909-0.179
	c-0.781-0.215-1.502-0.563-2.165-1.038c-0.444-0.318-0.847-0.685-1.211-1.098c-0.384-0.436-0.712-0.913-0.982-1.431
	C0.552,9.797,0.339,9.221,0.202,8.615c-0.058-0.257-0.105-0.516-0.128-0.78C0.056,7.585,0.041,7.333,0.025,7.099z M1.063,7.082
	c0,0.101-0.002,0.203,0,0.303C1.069,7.65,1.101,7.912,1.145,8.172c0.082,0.496,0.222,0.974,0.422,1.432
	c0.342,0.783,0.824,1.459,1.454,2.024c0.434,0.39,0.916,0.704,1.442,0.944c0.71,0.324,1.455,0.489,2.23,0.518
	c0.27,0.01,0.54,0.004,0.808-0.027c0.217-0.025,0.433-0.056,0.648-0.101c0.65-0.133,1.26-0.377,1.828-0.728
	c0.579-0.358,1.081-0.809,1.505-1.35c0.434-0.557,0.757-1.176,0.975-1.853c0.209-0.652,0.301-1.322,0.299-2.006
	c0-0.114-0.009-0.227-0.014-0.341c-0.01-0.243-0.041-0.484-0.082-0.723c-0.091-0.532-0.248-1.043-0.474-1.53
	c-0.33-0.711-0.778-1.331-1.351-1.856c-0.342-0.315-0.717-0.582-1.123-0.803C9.139,1.46,8.532,1.254,7.891,1.149
	c-0.309-0.05-0.617-0.076-0.928-0.08c-0.15-0.002-0.301,0.004-0.451,0.016C6.33,1.099,6.148,1.118,5.967,1.143
	C5.541,1.204,5.128,1.317,4.728,1.477c-0.956,0.382-1.76,0.98-2.403,1.803C1.892,3.834,1.569,4.45,1.354,5.125
	C1.15,5.761,1.053,6.414,1.063,7.082z"/>
</svg>
