<?xml version="1.0" encoding="utf-8"?>
<!-- Generator: Adobe Illustrator 17.0.0, SVG Export Plug-In . SVG Version: 6.00 Build 0)  -->
<!DOCTYPE svg PUBLIC "-//W3C//DTD SVG 1.1//EN" "http://www.w3.org/Graphics/SVG/1.1/DTD/svg11.dtd">
<svg version="1.1" id="Layer_1" xmlns="http://www.w3.org/2000/svg" xmlns:xlink="http://www.w3.org/1999/xlink" x="0px" y="0px"
	 width="18px" height="16px" viewBox="0 0 18 16" enable-background="new 0 0 18 16" xml:space="preserve">
<g>
	<path fill="#010101" d="M1.731,11.942"/>
	<path fill="#010101" d="M17.821,6.396l-7.305-6.358c-0.169-0.146-0.401-0.174-0.598-0.076c-0.197,0.099-0.322,0.308-0.322,0.54
		L9.579,3.856C6.305,3.967,3.77,5.083,2.127,7.122c-2.677,3.318-2.079,8.143-2.051,8.344c0.042,0.293,0.245,0.507,0.522,0.507
		c0.006,0,0.013,0,0.02,0c0.285-0.01,0.465-0.244,0.489-0.546c0.018-0.22,0.579-5.583,8.473-5.577l0.017,3.43
		c0,0.23,0.125,0.441,0.324,0.54c0.195,0.099,0.43,0.068,0.598-0.078l7.305-6.418c0.131-0.113,0.206-0.283,0.206-0.462
		C18.029,6.679,17.951,6.509,17.821,6.396z M10.724,12.013v-2.77c0-0.158-0.059-0.31-0.166-0.423
		c-0.107-0.111-0.248-0.174-0.397-0.174h-0.002c-5.637,0.004-7.791,2.023-9.022,3.804c0.18-1.428,0.705-3.149,1.849-4.555
		c1.52-1.869,3.968-2.854,7.175-2.854c0.311,0,0.563-0.267,0.563-0.597V1.759l5.852,5.103L10.724,12.013z"/>
</g>
</svg>
