<?xml version="1.0" encoding="utf-8"?>
<!-- Generator: Adobe Illustrator 17.0.0, SVG Export Plug-In . SVG Version: 6.00 Build 0)  -->
<!DOCTYPE svg PUBLIC "-//W3C//DTD SVG 1.1//EN" "http://www.w3.org/Graphics/SVG/1.1/DTD/svg11.dtd">
<svg version="1.1" id="Layer_1" xmlns="http://www.w3.org/2000/svg" xmlns:xlink="http://www.w3.org/1999/xlink" x="0px" y="0px"
	 width="16px" height="16px" viewBox="0 0 16 16" enable-background="new 0 0 16 16" xml:space="preserve">
<path fill="#34465D" d="M0,7.584c5.349-2.56,10.593-5.07,15.924-7.623c-0.151,0.916-0.279,1.727-0.419,2.534
	c-0.748,4.336-1.5,8.67-2.249,13.006c-0.108,0.622-0.253,0.685-0.713,0.286c-1.241-1.077-2.479-2.157-3.719-3.235
	c-0.121-0.104-0.246-0.203-0.388-0.32c-0.851,0.877-1.691,1.742-2.607,2.686c0.185-1.364,0.347-2.616,0.534-3.864
	c0.022-0.149,0.169-0.286,0.279-0.403c2.233-2.367,4.472-4.727,6.698-7.103c0.128-0.136,0.165-0.385,0.244-0.58
	c-0.179,0.042-0.386,0.033-0.533,0.135C11.121,4.445,9.2,5.802,7.276,7.155C6.38,7.784,5.487,8.42,4.582,9.035
	C4.443,9.129,4.227,9.196,4.084,9.144C2.75,8.653,1.424,8.133,0,7.584z"/>
</svg>
