<?xml version="1.0" encoding="utf-8"?>
<!-- Generator: Adobe Illustrator 17.0.0, SVG Export Plug-In . SVG Version: 6.00 Build 0)  -->
<!DOCTYPE svg PUBLIC "-//W3C//DTD SVG 1.1//EN" "http://www.w3.org/Graphics/SVG/1.1/DTD/svg11.dtd">
<svg version="1.1" id="Layer_1" xmlns="http://www.w3.org/2000/svg" xmlns:xlink="http://www.w3.org/1999/xlink" x="0px" y="0px"
	 width="16px" height="15px" viewBox="0 0 16 15" enable-background="new 0 0 16 15" xml:space="preserve">
<path d="M4.912,6.547c1.026-0.863,1.996-1.759,2.507-3.019c0.161-0.398,0.2-0.846,0.285-1.273c0.101-0.51,0.195-1.021,0.286-1.533
	C8.024,0.529,8.124,0.4,8.289,0.297C8.703,0.04,9.157-0.03,9.628,0.012c0.373,0.033,0.637,0.255,0.828,0.566
	c0.285,0.466,0.39,0.989,0.459,1.521c0.163,1.239,0.083,2.464-0.231,3.673C10.667,5.839,10.657,5.908,10.639,6
	c0.085,0,0.158,0,0.232,0c1.041,0,2.082-0.013,3.123,0.008c0.334,0.007,0.684,0.057,0.996,0.171c1.062,0.39,1.337,1.603,0.575,2.44
	c-0.089,0.097-0.176,0.195-0.267,0.296c0.551,0.825,0.296,1.442-0.456,2.057c0.158,0.406,0.228,0.824,0.06,1.248
	c-0.169,0.425-0.493,0.695-0.926,0.874c0,0.188,0.03,0.386-0.005,0.571c-0.142,0.737-0.872,1.289-1.7,1.292
	c-1.52,0.005-3.04-0.008-4.56,0.006c-0.563,0.005-1.084-0.123-1.585-0.362c-0.294-0.14-0.587-0.281-0.882-0.42
	c-0.069-0.032-0.141-0.055-0.225-0.087c-0.02,0.065-0.04,0.122-0.056,0.18c-0.121,0.423-0.476,0.715-0.915,0.718
	c-1.027,0.008-2.054,0.009-3.081,0c-0.566-0.005-0.962-0.442-0.962-1.038C0.002,11.65,0.002,9.346,0.004,7.042
	c0-0.103,0.011-0.209,0.037-0.308c0.107-0.424,0.466-0.726,0.903-0.73c1.041-0.009,2.082-0.007,3.123,0
	C4.406,6.007,4.652,6.175,4.912,6.547z M5,12.976c0.524,0.24,1.016,0.462,1.504,0.692c0.393,0.185,0.793,0.302,1.239,0.298
	c1.471-0.015,2.943-0.005,4.414-0.007c0.131,0,0.265-0.006,0.391-0.038c0.345-0.088,0.469-0.265,0.443-0.618
	c-0.01-0.131-0.037-0.261-0.061-0.39c-0.051-0.276,0.002-0.379,0.256-0.488c0.159-0.068,0.322-0.13,0.474-0.212
	c0.213-0.115,0.344-0.295,0.294-0.545c-0.043-0.214-0.109-0.427-0.189-0.631c-0.119-0.303-0.074-0.466,0.205-0.622
	c0.103-0.058,0.208-0.112,0.308-0.173c0.237-0.145,0.362-0.362,0.302-0.631c-0.044-0.196-0.132-0.393-0.242-0.561
	c-0.222-0.337-0.213-0.443,0.12-0.68c0.102-0.072,0.207-0.143,0.294-0.23c0.348-0.347,0.268-0.828-0.184-1.013
	c-0.193-0.079-0.416-0.118-0.625-0.119C12.484,6.995,11.027,7,9.569,7c-0.326,0-0.559-0.199-0.571-0.48
	C8.987,6.246,9.198,6.04,9.51,5.995c0.058-0.008,0.143-0.083,0.153-0.139c0.129-0.701,0.296-1.4,0.353-2.107
	c0.065-0.802,0.002-1.61-0.259-2.385C9.631,0.99,9.541,0.951,9.154,1.015C9.02,1.037,8.953,1.092,8.93,1.234
	C8.863,1.644,8.762,2.05,8.709,2.461C8.586,3.423,8.263,4.298,7.688,5.084C6.998,6.03,6.162,6.826,5.242,7.537
	C5.068,7.671,4.988,7.804,4.994,8.032C5.011,8.747,5,9.462,5,10.177C5,11.12,5,12.064,5,12.976z M1.017,7.009
	c0,2.337,0,4.656,0,6.97c1.002,0,1.99,0,2.973,0c0-2.332,0-4.646,0-6.97C2.996,7.009,2.014,7.009,1.017,7.009z"/>
</svg>
