<?xml version="1.0" encoding="utf-8"?>
<!-- Generator: Adobe Illustrator 17.0.0, SVG Export Plug-In . SVG Version: 6.00 Build 0)  -->
<!DOCTYPE svg PUBLIC "-//W3C//DTD SVG 1.1//EN" "http://www.w3.org/Graphics/SVG/1.1/DTD/svg11.dtd">
<svg version="1.1" id="Layer_1" xmlns="http://www.w3.org/2000/svg" xmlns:xlink="http://www.w3.org/1999/xlink" x="0px" y="0px"
	 width="18px" height="18px" viewBox="0 0 18 18" enable-background="new 0 0 18 18" xml:space="preserve">
<g>
	<defs>
		<rect id="SVGID_1_" x="-0.063" width="18" height="18"/>
	</defs>
	<clipPath id="SVGID_2_">
		<use xlink:href="#SVGID_1_"  overflow="visible"/>
	</clipPath>
	<g clip-path="url(#SVGID_2_)">
		
			<linearGradient id="SVGID_3_" gradientUnits="userSpaceOnUse" x1="305.937" y1="-368.845" x2="305.937" y2="-385" gradientTransform="matrix(1 0 0 -1 -297 -367)">
			<stop  offset="0" style="stop-color:#FDE971"/>
			<stop  offset="1" style="stop-color:#F69C32"/>
		</linearGradient>
		<path fill="url(#SVGID_3_)" d="M17.938,9c0,4.971-4.03,9.001-9.001,9.001S-0.064,13.971-0.064,9c0-4.971,4.03-9.001,9.001-9.001
			S17.938,4.029,17.938,9"/>
		
			<linearGradient id="SVGID_4_" gradientUnits="userSpaceOnUse" x1="305.9375" y1="-376" x2="305.9375" y2="-382.75" gradientTransform="matrix(1 0 0 -1 -297 -367)">
			<stop  offset="0" style="stop-color:#472416"/>
			<stop  offset="1" style="stop-color:#8B3C1E"/>
		</linearGradient>
		<path fill="url(#SVGID_4_)" d="M6.286,12.249c-0.178,2.076,0.818,3.501,2.652,3.501s2.829-1.425,2.652-3.501
			C11.412,10.172,10.335,9,8.938,9S6.463,10.172,6.286,12.249z"/>
		
			<linearGradient id="SVGID_5_" gradientUnits="userSpaceOnUse" x1="305.9375" y1="-371.5" x2="305.9375" y2="-374.875" gradientTransform="matrix(1 0 0 -1 -297 -367)">
			<stop  offset="0" style="stop-color:#191A33"/>
			<stop  offset="0.872" style="stop-color:#3C436B"/>
		</linearGradient>
		<path fill="url(#SVGID_5_)" d="M3.875,6.188c0-0.931,0.629-1.688,1.406-1.688s1.406,0.756,1.406,1.688
			c0,0.933-0.629,1.688-1.406,1.688S3.875,7.12,3.875,6.188z M11.188,6.188c0-0.931,0.63-1.688,1.406-1.688
			C13.371,4.5,14,5.256,14,6.188c0,0.933-0.629,1.688-1.406,1.688C11.818,7.875,11.188,7.12,11.188,6.188z"/>
		<path fill="#010101" d="M3.875,6.188c0-0.931,0.629-1.688,1.406-1.688s1.406,0.756,1.406,1.688c0,0.933-0.629,1.688-1.406,1.688
			S3.875,7.12,3.875,6.188z M11.188,6.188c0-0.931,0.63-1.688,1.406-1.688C13.371,4.5,14,5.256,14,6.188
			c0,0.933-0.629,1.688-1.406,1.688C11.818,7.875,11.188,7.12,11.188,6.188z"/>
		<path fill="#4F516A" d="M4.979,5.138C5.188,5.185,5.305,5.421,5.24,5.667C5.175,5.911,4.954,6.072,4.745,6.023
			C4.535,5.976,4.418,5.74,4.484,5.494C4.548,5.251,4.769,5.089,4.979,5.138z M12.47,5.209c0.231,0.053,0.361,0.315,0.29,0.585
			c-0.072,0.273-0.317,0.45-0.551,0.398c-0.231-0.052-0.362-0.315-0.29-0.585C11.99,5.334,12.236,5.157,12.47,5.209z"/>
		<path fill="#010101" d="M12.389,1.908C12.448,1.902,12.506,1.9,12.566,1.9c0.548,0,1.114,0.23,1.543,0.632
			c0.165,0.158,0.171,0.42,0.014,0.585c-0.032,0.034-0.07,0.062-0.111,0.083c-0.145,0.07-0.318,0.043-0.435-0.067
			c-0.309-0.293-0.738-0.45-1.116-0.416c-0.266,0.02-0.509,0.157-0.664,0.373c-0.128,0.173-0.372,0.209-0.544,0.082
			c-0.002-0.002-0.005-0.003-0.007-0.005c-0.175-0.138-0.209-0.391-0.076-0.57C11.455,2.2,11.901,1.948,12.389,1.908z M3.766,2.532
			C4.183,2.135,4.733,1.91,5.309,1.9c0.552-0.012,1.075,0.248,1.397,0.696c0.132,0.179,0.1,0.431-0.074,0.57
			c-0.17,0.132-0.416,0.101-0.548-0.069C6.083,3.095,6.081,3.093,6.079,3.09C5.924,2.874,5.681,2.738,5.415,2.718
			C5.038,2.683,4.608,2.842,4.299,3.133c-0.155,0.147-0.4,0.14-0.547-0.015C3.748,3.114,3.745,3.11,3.741,3.106
			C3.594,2.939,3.605,2.686,3.766,2.532z"/>
		
			<linearGradient id="SVGID_6_" gradientUnits="userSpaceOnUse" x1="305.9373" y1="-368.8997" x2="305.9373" y2="-370.2489" gradientTransform="matrix(1 0 0 -1 -297 -367)">
			<stop  offset="0" style="stop-color:#E58E24"/>
			<stop  offset="1" style="stop-color:#CA6328"/>
		</linearGradient>
		<path fill="url(#SVGID_6_)" d="M12.389,1.908C12.448,1.902,12.506,1.9,12.566,1.9c0.548,0,1.114,0.23,1.543,0.632
			c0.165,0.158,0.171,0.42,0.014,0.585c-0.032,0.034-0.07,0.062-0.111,0.083c-0.145,0.07-0.318,0.043-0.435-0.067
			c-0.309-0.293-0.738-0.45-1.116-0.416c-0.266,0.02-0.509,0.157-0.664,0.373c-0.128,0.173-0.372,0.209-0.544,0.082
			c-0.002-0.002-0.005-0.003-0.007-0.005c-0.175-0.138-0.209-0.391-0.076-0.57C11.455,2.2,11.901,1.948,12.389,1.908z M3.766,2.532
			C4.183,2.135,4.733,1.91,5.309,1.9c0.552-0.012,1.075,0.248,1.397,0.696c0.132,0.179,0.1,0.431-0.074,0.57
			c-0.17,0.132-0.416,0.101-0.548-0.069C6.083,3.095,6.081,3.093,6.079,3.09C5.924,2.874,5.681,2.738,5.415,2.718
			C5.038,2.683,4.608,2.842,4.299,3.133c-0.155,0.147-0.4,0.14-0.547-0.015C3.748,3.114,3.745,3.11,3.741,3.106
			C3.594,2.939,3.605,2.686,3.766,2.532z"/>
	</g>
</g>
</svg>
